<mxfile host="app.diagrams.net" modified="2023-06-03T18:42:13.916Z" agent="Mozilla/5.0 (Windows NT 10.0; Win64; x64; rv:109.0) Gecko/20100101 Firefox/113.0" etag="5n8RjYDzoSxrPq4--feH" version="21.3.7" type="device">
  <diagram id="7D1J2RN3TI_QqU_orNVl" name="Pagina-1">
    <mxGraphModel dx="5264" dy="3862" grid="1" gridSize="10" guides="1" tooltips="1" connect="1" arrows="1" fold="1" page="0" pageScale="1" pageWidth="827" pageHeight="1169" background="none" math="0" shadow="0">
      <root>
        <mxCell id="0" />
        <mxCell id="1" parent="0" />
        <mxCell id="pdc4RF1cK7iSSo5h04IV-68" value="&lt;span style=&quot;font-size: 28px;&quot;&gt;&lt;b&gt;&lt;i&gt;Socket&lt;/i&gt;&lt;/b&gt;&lt;/span&gt;" style="shape=umlFrame;whiteSpace=wrap;html=1;pointerEvents=0;width=370;height=60;strokeWidth=10;" parent="1" vertex="1">
          <mxGeometry x="-2690" y="-1370" width="4750" height="2010" as="geometry" />
        </mxCell>
        <mxCell id="pdc4RF1cK7iSSo5h04IV-63" value="&lt;span style=&quot;font-size: 28px;&quot;&gt;&lt;b&gt;&lt;i&gt;MainControllerMessages&lt;/i&gt;&lt;/b&gt;&lt;/span&gt;" style="shape=umlFrame;whiteSpace=wrap;html=1;pointerEvents=0;width=370;height=60;fillColor=#e1d5e7;strokeColor=#9673a6;strokeWidth=10;" parent="1" vertex="1">
          <mxGeometry x="-1220" y="290" width="1660" height="300" as="geometry" />
        </mxCell>
        <mxCell id="pdc4RF1cK7iSSo5h04IV-47" value="&lt;span style=&quot;font-size: 28px;&quot;&gt;&lt;b&gt;&lt;i&gt;GameControllerMessages&lt;/i&gt;&lt;/b&gt;&lt;/span&gt;" style="shape=umlFrame;whiteSpace=wrap;html=1;pointerEvents=0;width=370;height=60;fillColor=#d5e8d4;strokeColor=#82b366;strokeWidth=10;" parent="1" vertex="1">
          <mxGeometry x="-350" y="-180.5" width="1660" height="431" as="geometry" />
        </mxCell>
        <mxCell id="pdc4RF1cK7iSSo5h04IV-15" value="&lt;font size=&quot;1&quot;&gt;&lt;i&gt;&lt;b style=&quot;font-size: 28px;&quot;&gt;ServerToClientMessages&lt;/b&gt;&lt;/i&gt;&lt;/font&gt;" style="shape=umlFrame;whiteSpace=wrap;html=1;pointerEvents=0;width=370;height=60;fillColor=#f8cecc;strokeColor=#b85450;strokeWidth=10;" parent="1" vertex="1">
          <mxGeometry x="300" y="-608" width="1370" height="338" as="geometry" />
        </mxCell>
        <mxCell id="dzRaXjKXjlgb23_gsx2O-1" value="Server" style="swimlane;fontStyle=1;align=center;verticalAlign=top;childLayout=stackLayout;horizontal=1;startSize=30;horizontalStack=0;resizeParent=1;resizeParentMax=0;resizeLast=0;collapsible=1;marginBottom=0;fillColor=#f8cecc;strokeColor=#b85450;fontSize=18;" parent="1" vertex="1">
          <mxGeometry x="-1030" y="-820" width="260" height="168" as="geometry" />
        </mxCell>
        <mxCell id="dzRaXjKXjlgb23_gsx2O-42" value="- ServerSocket: serverSocket&#xa;" style="text;strokeColor=none;fillColor=none;align=left;verticalAlign=top;spacingLeft=4;spacingRight=4;overflow=hidden;rotatable=0;points=[[0,0.5],[1,0.5]];portConstraint=eastwest;fontSize=13;" parent="dzRaXjKXjlgb23_gsx2O-1" vertex="1">
          <mxGeometry y="30" width="260" height="26" as="geometry" />
        </mxCell>
        <mxCell id="dzRaXjKXjlgb23_gsx2O-53" value="- List&lt;ClientHandler&gt;: hander&#xa;" style="text;strokeColor=none;fillColor=none;align=left;verticalAlign=top;spacingLeft=4;spacingRight=4;overflow=hidden;rotatable=0;points=[[0,0.5],[1,0.5]];portConstraint=eastwest;fontSize=13;" parent="dzRaXjKXjlgb23_gsx2O-1" vertex="1">
          <mxGeometry y="56" width="260" height="26" as="geometry" />
        </mxCell>
        <mxCell id="dzRaXjKXjlgb23_gsx2O-3" value="" style="line;strokeWidth=1;fillColor=none;align=left;verticalAlign=middle;spacingTop=-1;spacingLeft=3;spacingRight=3;rotatable=0;labelPosition=right;points=[];portConstraint=eastwest;strokeColor=inherit;" parent="dzRaXjKXjlgb23_gsx2O-1" vertex="1">
          <mxGeometry y="82" width="260" height="8" as="geometry" />
        </mxCell>
        <mxCell id="dzRaXjKXjlgb23_gsx2O-54" value="+ void start(int port)" style="text;strokeColor=none;fillColor=none;align=left;verticalAlign=top;spacingLeft=4;spacingRight=4;overflow=hidden;rotatable=0;points=[[0,0.5],[1,0.5]];portConstraint=eastwest;fontSize=13;" parent="dzRaXjKXjlgb23_gsx2O-1" vertex="1">
          <mxGeometry y="90" width="260" height="26" as="geometry" />
        </mxCell>
        <mxCell id="dzRaXjKXjlgb23_gsx2O-40" value="+ void run()" style="text;strokeColor=none;fillColor=none;align=left;verticalAlign=top;spacingLeft=4;spacingRight=4;overflow=hidden;rotatable=0;points=[[0,0.5],[1,0.5]];portConstraint=eastwest;fontSize=13;" parent="dzRaXjKXjlgb23_gsx2O-1" vertex="1">
          <mxGeometry y="116" width="260" height="26" as="geometry" />
        </mxCell>
        <mxCell id="dzRaXjKXjlgb23_gsx2O-51" value="+ void stopConnection()" style="text;strokeColor=none;fillColor=none;align=left;verticalAlign=top;spacingLeft=4;spacingRight=4;overflow=hidden;rotatable=0;points=[[0,0.5],[1,0.5]];portConstraint=eastwest;fontSize=13;" parent="dzRaXjKXjlgb23_gsx2O-1" vertex="1">
          <mxGeometry y="142" width="260" height="26" as="geometry" />
        </mxCell>
        <mxCell id="dzRaXjKXjlgb23_gsx2O-9" value="ClientHandler" style="swimlane;fontStyle=1;align=center;verticalAlign=top;childLayout=stackLayout;horizontal=1;startSize=30;horizontalStack=0;resizeParent=1;resizeParentMax=0;resizeLast=0;collapsible=1;marginBottom=0;fillColor=#d5e8d4;strokeColor=#82b366;fontSize=18;" parent="1" vertex="1">
          <mxGeometry x="-760" y="-510" width="390" height="272" as="geometry" />
        </mxCell>
        <mxCell id="dzRaXjKXjlgb23_gsx2O-55" value="- Socket: clientSocket&#xa;" style="text;strokeColor=none;fillColor=none;align=left;verticalAlign=top;spacingLeft=4;spacingRight=4;overflow=hidden;rotatable=0;points=[[0,0.5],[1,0.5]];portConstraint=eastwest;fontSize=13;" parent="dzRaXjKXjlgb23_gsx2O-9" vertex="1">
          <mxGeometry y="30" width="390" height="26" as="geometry" />
        </mxCell>
        <mxCell id="dzRaXjKXjlgb23_gsx2O-59" value="- ObjectIntupStream: in&#xa;" style="text;strokeColor=none;fillColor=none;align=left;verticalAlign=top;spacingLeft=4;spacingRight=4;overflow=hidden;rotatable=0;points=[[0,0.5],[1,0.5]];portConstraint=eastwest;fontSize=13;" parent="dzRaXjKXjlgb23_gsx2O-9" vertex="1">
          <mxGeometry y="56" width="390" height="26" as="geometry" />
        </mxCell>
        <mxCell id="dzRaXjKXjlgb23_gsx2O-61" value="- ObjectOutputStream: out&#xa;" style="text;strokeColor=none;fillColor=none;align=left;verticalAlign=top;spacingLeft=4;spacingRight=4;overflow=hidden;rotatable=0;points=[[0,0.5],[1,0.5]];portConstraint=eastwest;fontSize=13;" parent="dzRaXjKXjlgb23_gsx2O-9" vertex="1">
          <mxGeometry y="82" width="390" height="26" as="geometry" />
        </mxCell>
        <mxCell id="dzRaXjKXjlgb23_gsx2O-57" value="- GameControlerInterface: gameController&#xa;" style="text;strokeColor=none;fillColor=none;align=left;verticalAlign=top;spacingLeft=4;spacingRight=4;overflow=hidden;rotatable=0;points=[[0,0.5],[1,0.5]];portConstraint=eastwest;fontSize=13;" parent="dzRaXjKXjlgb23_gsx2O-9" vertex="1">
          <mxGeometry y="108" width="390" height="26" as="geometry" />
        </mxCell>
        <mxCell id="dzRaXjKXjlgb23_gsx2O-58" value="-Â GameListenersHandlerSocket: gameListenerHandlerSocket&#xa;" style="text;strokeColor=none;fillColor=none;align=left;verticalAlign=top;spacingLeft=4;spacingRight=4;overflow=hidden;rotatable=0;points=[[0,0.5],[1,0.5]];portConstraint=eastwest;fontSize=13;" parent="dzRaXjKXjlgb23_gsx2O-9" vertex="1">
          <mxGeometry y="134" width="390" height="26" as="geometry" />
        </mxCell>
        <mxCell id="dzRaXjKXjlgb23_gsx2O-60" value="- String: nick" style="text;strokeColor=none;fillColor=none;align=left;verticalAlign=top;spacingLeft=4;spacingRight=4;overflow=hidden;rotatable=0;points=[[0,0.5],[1,0.5]];portConstraint=eastwest;fontSize=13;" parent="dzRaXjKXjlgb23_gsx2O-9" vertex="1">
          <mxGeometry y="160" width="390" height="26" as="geometry" />
        </mxCell>
        <mxCell id="dzRaXjKXjlgb23_gsx2O-11" value="" style="line;strokeWidth=1;fillColor=none;align=left;verticalAlign=middle;spacingTop=-1;spacingLeft=3;spacingRight=3;rotatable=0;labelPosition=right;points=[];portConstraint=eastwest;strokeColor=inherit;" parent="dzRaXjKXjlgb23_gsx2O-9" vertex="1">
          <mxGeometry y="186" width="390" height="8" as="geometry" />
        </mxCell>
        <mxCell id="dzRaXjKXjlgb23_gsx2O-62" value="+ ClientHandler(Socket soc)&#xa;" style="text;strokeColor=none;fillColor=none;align=left;verticalAlign=top;spacingLeft=4;spacingRight=4;overflow=hidden;rotatable=0;points=[[0,0.5],[1,0.5]];portConstraint=eastwest;fontSize=13;" parent="dzRaXjKXjlgb23_gsx2O-9" vertex="1">
          <mxGeometry y="194" width="390" height="26" as="geometry" />
        </mxCell>
        <mxCell id="dzRaXjKXjlgb23_gsx2O-63" value="+ void interruptThread()&#xa;" style="text;strokeColor=none;fillColor=none;align=left;verticalAlign=top;spacingLeft=4;spacingRight=4;overflow=hidden;rotatable=0;points=[[0,0.5],[1,0.5]];portConstraint=eastwest;fontSize=13;" parent="dzRaXjKXjlgb23_gsx2O-9" vertex="1">
          <mxGeometry y="220" width="390" height="26" as="geometry" />
        </mxCell>
        <mxCell id="dzRaXjKXjlgb23_gsx2O-64" value="+ void run()&#xa;" style="text;strokeColor=none;fillColor=none;align=left;verticalAlign=top;spacingLeft=4;spacingRight=4;overflow=hidden;rotatable=0;points=[[0,0.5],[1,0.5]];portConstraint=eastwest;fontSize=13;" parent="dzRaXjKXjlgb23_gsx2O-9" vertex="1">
          <mxGeometry y="246" width="390" height="26" as="geometry" />
        </mxCell>
        <mxCell id="dzRaXjKXjlgb23_gsx2O-13" style="edgeStyle=orthogonalEdgeStyle;rounded=0;orthogonalLoop=1;jettySize=auto;html=1;entryX=0.5;entryY=0;entryDx=0;entryDy=0;startArrow=diamond;startFill=1;" parent="1" source="dzRaXjKXjlgb23_gsx2O-53" target="dzRaXjKXjlgb23_gsx2O-9" edge="1">
          <mxGeometry relative="1" as="geometry">
            <mxPoint x="-770" y="-732.0000000000002" as="sourcePoint" />
          </mxGeometry>
        </mxCell>
        <mxCell id="dzRaXjKXjlgb23_gsx2O-14" value="&lt;font style=&quot;font-size: 17px;&quot;&gt;handler&lt;/font&gt;" style="edgeLabel;html=1;align=center;verticalAlign=middle;resizable=0;points=[];" parent="dzRaXjKXjlgb23_gsx2O-13" vertex="1" connectable="0">
          <mxGeometry x="0.8343" y="1" relative="1" as="geometry">
            <mxPoint x="-81" y="-193" as="offset" />
          </mxGeometry>
        </mxCell>
        <mxCell id="dzRaXjKXjlgb23_gsx2O-17" value="&lt;font style=&quot;font-size: 17px;&quot;&gt;Ad ogni connessione avvia un ClientHandler che la gestisce&lt;/font&gt;" style="shape=note2;boundedLbl=1;whiteSpace=wrap;html=1;size=25;verticalAlign=top;align=center;fillColor=#fff2cc;strokeColor=#d6b656;" parent="1" vertex="1">
          <mxGeometry x="-740" y="-980" width="230" height="110" as="geometry" />
        </mxCell>
        <mxCell id="dzRaXjKXjlgb23_gsx2O-164" style="rounded=0;orthogonalLoop=1;jettySize=auto;html=1;fontSize=18;startArrow=none;startFill=0;endArrow=classic;endFill=0;strokeWidth=1;strokeColor=default;shape=flexArrow;targetPerimeterSpacing=11;exitX=0.5;exitY=0;exitDx=0;exitDy=0;edgeStyle=orthogonalEdgeStyle;" parent="1" source="dzRaXjKXjlgb23_gsx2O-18" target="dzRaXjKXjlgb23_gsx2O-131" edge="1">
          <mxGeometry relative="1" as="geometry">
            <Array as="points">
              <mxPoint x="300" y="-930" />
              <mxPoint x="300" y="-1140" />
            </Array>
          </mxGeometry>
        </mxCell>
        <mxCell id="dzRaXjKXjlgb23_gsx2O-222" value="implements" style="edgeLabel;html=1;align=center;verticalAlign=middle;resizable=0;points=[];fontSize=20;" parent="dzRaXjKXjlgb23_gsx2O-164" vertex="1" connectable="0">
          <mxGeometry x="0.7783" relative="1" as="geometry">
            <mxPoint x="1246" y="121" as="offset" />
          </mxGeometry>
        </mxCell>
        <mxCell id="dzRaXjKXjlgb23_gsx2O-217" style="edgeStyle=orthogonalEdgeStyle;rounded=0;orthogonalLoop=1;jettySize=auto;html=1;strokeColor=default;strokeWidth=1;fontSize=18;startArrow=none;startFill=0;endArrow=open;endFill=0;targetPerimeterSpacing=11;dashed=1;" parent="1" source="dzRaXjKXjlgb23_gsx2O-18" target="pdc4RF1cK7iSSo5h04IV-15" edge="1">
          <mxGeometry relative="1" as="geometry">
            <Array as="points">
              <mxPoint x="435" y="-720" />
              <mxPoint x="810" y="-720" />
            </Array>
          </mxGeometry>
        </mxCell>
        <mxCell id="dzRaXjKXjlgb23_gsx2O-218" value="crea ed esegue out.writeObject(new msgPlayerJoined(...))&amp;nbsp;" style="edgeLabel;html=1;align=center;verticalAlign=middle;resizable=0;points=[];fontSize=20;" parent="dzRaXjKXjlgb23_gsx2O-217" vertex="1" connectable="0">
          <mxGeometry x="0.328" y="-3" relative="1" as="geometry">
            <mxPoint x="-73" y="16" as="offset" />
          </mxGeometry>
        </mxCell>
        <mxCell id="dzRaXjKXjlgb23_gsx2O-18" value="GameListenersHandlerSocket" style="swimlane;fontStyle=1;align=center;verticalAlign=top;childLayout=stackLayout;horizontal=1;startSize=30;horizontalStack=0;resizeParent=1;resizeParentMax=0;resizeLast=0;collapsible=1;marginBottom=0;fontSize=18;fillColor=#ffcccc;strokeColor=#36393d;" parent="1" vertex="1">
          <mxGeometry x="110" y="-930" width="390" height="142" as="geometry" />
        </mxCell>
        <mxCell id="dzRaXjKXjlgb23_gsx2O-91" value="- ObjectOutputStream out" style="text;strokeColor=none;fillColor=none;align=left;verticalAlign=top;spacingLeft=4;spacingRight=4;overflow=hidden;rotatable=0;points=[[0,0.5],[1,0.5]];portConstraint=eastwest;fontSize=13;" parent="dzRaXjKXjlgb23_gsx2O-18" vertex="1">
          <mxGeometry y="30" width="390" height="26" as="geometry" />
        </mxCell>
        <mxCell id="dzRaXjKXjlgb23_gsx2O-20" value="" style="line;strokeWidth=1;fillColor=none;align=left;verticalAlign=middle;spacingTop=-1;spacingLeft=3;spacingRight=3;rotatable=0;labelPosition=right;points=[];portConstraint=eastwest;strokeColor=inherit;" parent="dzRaXjKXjlgb23_gsx2O-18" vertex="1">
          <mxGeometry y="56" width="390" height="8" as="geometry" />
        </mxCell>
        <mxCell id="dzRaXjKXjlgb23_gsx2O-184" value="+ void playerJoined(GameModelImmutable gamemodel)Â " style="text;strokeColor=none;fillColor=none;align=left;verticalAlign=top;spacingLeft=4;spacingRight=4;overflow=hidden;rotatable=0;points=[[0,0.5],[1,0.5]];portConstraint=eastwest;fontSize=13;" parent="dzRaXjKXjlgb23_gsx2O-18" vertex="1">
          <mxGeometry y="64" width="390" height="26" as="geometry" />
        </mxCell>
        <mxCell id="dzRaXjKXjlgb23_gsx2O-185" value="+ void playerLeft(GameModelImmutable gamemodel, String nick)Â " style="text;strokeColor=none;fillColor=none;align=left;verticalAlign=top;spacingLeft=4;spacingRight=4;overflow=hidden;rotatable=0;points=[[0,0.5],[1,0.5]];portConstraint=eastwest;fontSize=13;" parent="dzRaXjKXjlgb23_gsx2O-18" vertex="1">
          <mxGeometry y="90" width="390" height="26" as="geometry" />
        </mxCell>
        <mxCell id="dzRaXjKXjlgb23_gsx2O-198" value="... altri metodi implementati di GameListener" style="text;strokeColor=none;fillColor=none;align=center;verticalAlign=top;spacingLeft=4;spacingRight=4;overflow=hidden;rotatable=0;points=[[0,0.5],[1,0.5]];portConstraint=eastwest;fontSize=13;fontStyle=3" parent="dzRaXjKXjlgb23_gsx2O-18" vertex="1">
          <mxGeometry y="116" width="390" height="26" as="geometry" />
        </mxCell>
        <mxCell id="dzRaXjKXjlgb23_gsx2O-23" style="edgeStyle=orthogonalEdgeStyle;rounded=0;orthogonalLoop=1;jettySize=auto;html=1;startArrow=none;startFill=0;" parent="1" source="dzRaXjKXjlgb23_gsx2O-58" target="dzRaXjKXjlgb23_gsx2O-18" edge="1">
          <mxGeometry relative="1" as="geometry">
            <mxPoint x="-760" y="-354" as="sourcePoint" />
            <Array as="points">
              <mxPoint x="-260" y="-363" />
              <mxPoint x="-260" y="-360" />
              <mxPoint x="180" y="-360" />
            </Array>
          </mxGeometry>
        </mxCell>
        <mxCell id="dzRaXjKXjlgb23_gsx2O-24" value="&lt;font style=&quot;font-size: 17px;&quot;&gt;gameListenerHandlerSocket&lt;/font&gt;" style="edgeLabel;html=1;align=center;verticalAlign=middle;resizable=0;points=[];" parent="dzRaXjKXjlgb23_gsx2O-23" vertex="1" connectable="0">
          <mxGeometry x="-0.243" y="2" relative="1" as="geometry">
            <mxPoint x="-534" y="-264" as="offset" />
          </mxGeometry>
        </mxCell>
        <mxCell id="N_FLWN3HZIdAGJALNfn6-1" value="&lt;font style=&quot;font-size: 17px;&quot;&gt;gameListenerHandlerSocket&lt;/font&gt;" style="edgeLabel;html=1;align=center;verticalAlign=middle;resizable=0;points=[];" parent="dzRaXjKXjlgb23_gsx2O-23" vertex="1" connectable="0">
          <mxGeometry x="-0.663" y="2" relative="1" as="geometry">
            <mxPoint as="offset" />
          </mxGeometry>
        </mxCell>
        <mxCell id="dzRaXjKXjlgb23_gsx2O-199" style="edgeStyle=orthogonalEdgeStyle;rounded=0;orthogonalLoop=1;jettySize=auto;html=1;entryX=0.75;entryY=0;entryDx=0;entryDy=0;strokeColor=#d6b656;strokeWidth=1;fontSize=18;startArrow=none;startFill=0;endArrow=none;endFill=0;targetPerimeterSpacing=11;fillColor=#fff2cc;" parent="1" source="dzRaXjKXjlgb23_gsx2O-25" target="dzRaXjKXjlgb23_gsx2O-18" edge="1">
          <mxGeometry relative="1" as="geometry">
            <Array as="points">
              <mxPoint x="540" y="-1020" />
              <mxPoint x="470" y="-1020" />
              <mxPoint x="470" y="-930" />
            </Array>
          </mxGeometry>
        </mxCell>
        <mxCell id="dzRaXjKXjlgb23_gsx2O-25" value="&lt;font style=&quot;font-size: 17px;&quot;&gt;Per notificare al client, attraverso l&#39;ObjectOutputStream out, le notifiche che si possono verificare in un game&lt;br&gt;&lt;br&gt;Invia degli oggetti ad hoc in base al messaggio da inviare&lt;/font&gt;" style="shape=note2;boundedLbl=1;whiteSpace=wrap;html=1;size=25;verticalAlign=top;align=center;fillColor=#fff2cc;strokeColor=#d6b656;" parent="1" vertex="1">
          <mxGeometry x="400" y="-1214" width="410" height="160" as="geometry" />
        </mxCell>
        <mxCell id="dzRaXjKXjlgb23_gsx2O-27" value="&lt;&lt;interface&gt;&gt;&#xa;GameControllerInterface&#xa;extends Remote" style="swimlane;fontStyle=1;align=center;verticalAlign=top;childLayout=stackLayout;horizontal=1;startSize=80;horizontalStack=0;resizeParent=1;resizeParentMax=0;resizeLast=0;collapsible=1;marginBottom=0;fillColor=#dae8fc;strokeColor=#6c8ebf;fontSize=18;" parent="1" vertex="1">
          <mxGeometry x="-330" y="-930" width="360" height="262" as="geometry" />
        </mxCell>
        <mxCell id="dzRaXjKXjlgb23_gsx2O-72" value="+ boolean isThisMyTurn(String)" style="text;strokeColor=none;fillColor=none;align=left;verticalAlign=top;spacingLeft=4;spacingRight=4;overflow=hidden;rotatable=0;points=[[0,0.5],[1,0.5]];portConstraint=eastwest;fontSize=13;" parent="dzRaXjKXjlgb23_gsx2O-27" vertex="1">
          <mxGeometry y="80" width="360" height="26" as="geometry" />
        </mxCell>
        <mxCell id="dzRaXjKXjlgb23_gsx2O-75" value="+ void sentMessage(Message)" style="text;strokeColor=none;fillColor=none;align=left;verticalAlign=top;spacingLeft=4;spacingRight=4;overflow=hidden;rotatable=0;points=[[0,0.5],[1,0.5]];portConstraint=eastwest;fontSize=13;" parent="dzRaXjKXjlgb23_gsx2O-27" vertex="1">
          <mxGeometry y="106" width="360" height="26" as="geometry" />
        </mxCell>
        <mxCell id="dzRaXjKXjlgb23_gsx2O-77" value="+ void setConnectionStatus(String, GameListener, boolean)" style="text;strokeColor=none;fillColor=none;align=left;verticalAlign=top;spacingLeft=4;spacingRight=4;overflow=hidden;rotatable=0;points=[[0,0.5],[1,0.5]];portConstraint=eastwest;fontSize=13;" parent="dzRaXjKXjlgb23_gsx2O-27" vertex="1">
          <mxGeometry y="132" width="360" height="26" as="geometry" />
        </mxCell>
        <mxCell id="dzRaXjKXjlgb23_gsx2O-83" value="+ void heartbeat(String, GameListener)" style="text;strokeColor=none;fillColor=none;align=left;verticalAlign=top;spacingLeft=4;spacingRight=4;overflow=hidden;rotatable=0;points=[[0,0.5],[1,0.5]];portConstraint=eastwest;fontSize=13;" parent="dzRaXjKXjlgb23_gsx2O-27" vertex="1">
          <mxGeometry y="158" width="360" height="26" as="geometry" />
        </mxCell>
        <mxCell id="dzRaXjKXjlgb23_gsx2O-85" value="+ void grabTileFromPlayground(String, int, int, Direction, int)" style="text;strokeColor=none;fillColor=none;align=left;verticalAlign=top;spacingLeft=4;spacingRight=4;overflow=hidden;rotatable=0;points=[[0,0.5],[1,0.5]];portConstraint=eastwest;fontSize=13;" parent="dzRaXjKXjlgb23_gsx2O-27" vertex="1">
          <mxGeometry y="184" width="360" height="26" as="geometry" />
        </mxCell>
        <mxCell id="dzRaXjKXjlgb23_gsx2O-99" value="+ void positionTileOnShelf(String, int, TileType)" style="text;strokeColor=none;fillColor=none;align=left;verticalAlign=top;spacingLeft=4;spacingRight=4;overflow=hidden;rotatable=0;points=[[0,0.5],[1,0.5]];portConstraint=eastwest;fontSize=13;" parent="dzRaXjKXjlgb23_gsx2O-27" vertex="1">
          <mxGeometry y="210" width="360" height="26" as="geometry" />
        </mxCell>
        <mxCell id="dzRaXjKXjlgb23_gsx2O-100" value="+ boolean playerIsReadyToStart(String)" style="text;strokeColor=none;fillColor=none;align=left;verticalAlign=top;spacingLeft=4;spacingRight=4;overflow=hidden;rotatable=0;points=[[0,0.5],[1,0.5]];portConstraint=eastwest;fontSize=13;" parent="dzRaXjKXjlgb23_gsx2O-27" vertex="1">
          <mxGeometry y="236" width="360" height="26" as="geometry" />
        </mxCell>
        <mxCell id="dzRaXjKXjlgb23_gsx2O-31" style="edgeStyle=orthogonalEdgeStyle;rounded=0;orthogonalLoop=1;jettySize=auto;html=1;fontSize=13;startArrow=none;startFill=0;" parent="1" source="dzRaXjKXjlgb23_gsx2O-57" target="dzRaXjKXjlgb23_gsx2O-100" edge="1">
          <mxGeometry relative="1" as="geometry">
            <mxPoint x="-400" y="-360" as="sourcePoint" />
            <mxPoint x="-40.07999999999993" y="-723.8799999999999" as="targetPoint" />
            <Array as="points">
              <mxPoint x="-330" y="-393" />
              <mxPoint x="-330" y="-399" />
              <mxPoint x="-130" y="-399" />
            </Array>
          </mxGeometry>
        </mxCell>
        <mxCell id="dzRaXjKXjlgb23_gsx2O-32" value="&lt;font style=&quot;font-size: 17px;&quot;&gt;GameControllerInterface&lt;/font&gt;" style="edgeLabel;html=1;align=center;verticalAlign=middle;resizable=0;points=[];fontSize=13;" parent="dzRaXjKXjlgb23_gsx2O-31" vertex="1" connectable="0">
          <mxGeometry x="-0.6562" y="-3" relative="1" as="geometry">
            <mxPoint x="67" y="-6" as="offset" />
          </mxGeometry>
        </mxCell>
        <mxCell id="dzRaXjKXjlgb23_gsx2O-33" value="&lt;font style=&quot;font-size: 17px;&quot;&gt;Interfaccia riferita al GameController su cui invocare azioni durante il gioco&lt;/font&gt;" style="shape=note2;boundedLbl=1;whiteSpace=wrap;html=1;size=25;verticalAlign=top;align=center;fillColor=#fff2cc;strokeColor=#d6b656;" parent="1" vertex="1">
          <mxGeometry x="-290" y="-1060" width="230" height="120" as="geometry" />
        </mxCell>
        <mxCell id="dzRaXjKXjlgb23_gsx2O-159" style="edgeStyle=orthogonalEdgeStyle;rounded=0;orthogonalLoop=1;jettySize=auto;html=1;fontSize=18;startArrow=none;startFill=0;endArrow=block;endFill=0;dashed=1;" parent="1" source="dzRaXjKXjlgb23_gsx2O-108" target="dzRaXjKXjlgb23_gsx2O-1" edge="1">
          <mxGeometry relative="1" as="geometry">
            <Array as="points">
              <mxPoint x="-1170" y="-231" />
              <mxPoint x="-1170" y="-560" />
              <mxPoint x="-880" y="-560" />
            </Array>
          </mxGeometry>
        </mxCell>
        <mxCell id="dzRaXjKXjlgb23_gsx2O-160" value="si connette" style="edgeLabel;html=1;align=center;verticalAlign=middle;resizable=0;points=[];fontSize=20;" parent="dzRaXjKXjlgb23_gsx2O-159" vertex="1" connectable="0">
          <mxGeometry x="-0.071" relative="1" as="geometry">
            <mxPoint y="1" as="offset" />
          </mxGeometry>
        </mxCell>
        <mxCell id="pdc4RF1cK7iSSo5h04IV-48" style="edgeStyle=orthogonalEdgeStyle;rounded=0;orthogonalLoop=1;jettySize=auto;html=1;strokeColor=#000000;fontSize=20;dashed=1;" parent="1" source="dzRaXjKXjlgb23_gsx2O-108" target="pdc4RF1cK7iSSo5h04IV-47" edge="1">
          <mxGeometry relative="1" as="geometry">
            <Array as="points">
              <mxPoint x="-1565" y="100" />
              <mxPoint x="500" y="100" />
              <mxPoint x="500" y="26" />
            </Array>
          </mxGeometry>
        </mxCell>
        <mxCell id="pdc4RF1cK7iSSo5h04IV-49" value="crea ed esegue&amp;nbsp;out.writeObject(new SocketClientMessageSetReady(...))" style="edgeLabel;html=1;align=center;verticalAlign=middle;resizable=0;points=[];fontSize=20;" parent="pdc4RF1cK7iSSo5h04IV-48" vertex="1" connectable="0">
          <mxGeometry x="0.7294" y="-1" relative="1" as="geometry">
            <mxPoint x="-321" y="-10" as="offset" />
          </mxGeometry>
        </mxCell>
        <mxCell id="pdc4RF1cK7iSSo5h04IV-64" style="edgeStyle=orthogonalEdgeStyle;rounded=0;orthogonalLoop=1;jettySize=auto;html=1;strokeColor=#000000;fontSize=20;dashed=1;" parent="1" source="dzRaXjKXjlgb23_gsx2O-108" target="pdc4RF1cK7iSSo5h04IV-63" edge="1">
          <mxGeometry relative="1" as="geometry">
            <Array as="points">
              <mxPoint x="-1565" y="220" />
              <mxPoint x="-760" y="220" />
            </Array>
          </mxGeometry>
        </mxCell>
        <mxCell id="pdc4RF1cK7iSSo5h04IV-65" value="crea ed esegue&amp;nbsp;out.writeObject(new SocketClientMessageCreateGame(...))" style="edgeLabel;html=1;align=center;verticalAlign=middle;resizable=0;points=[];fontSize=20;" parent="pdc4RF1cK7iSSo5h04IV-64" vertex="1" connectable="0">
          <mxGeometry x="0.2336" relative="1" as="geometry">
            <mxPoint x="1" as="offset" />
          </mxGeometry>
        </mxCell>
        <mxCell id="QCJdGkt5ciZwqmFSoXIl-13" style="edgeStyle=orthogonalEdgeStyle;rounded=0;orthogonalLoop=1;jettySize=auto;html=1;shape=flexArrow;" parent="1" source="dzRaXjKXjlgb23_gsx2O-108" target="QCJdGkt5ciZwqmFSoXIl-1" edge="1">
          <mxGeometry relative="1" as="geometry" />
        </mxCell>
        <mxCell id="QCJdGkt5ciZwqmFSoXIl-14" value="implements" style="edgeLabel;html=1;align=center;verticalAlign=middle;resizable=0;points=[];fontSize=20;" parent="QCJdGkt5ciZwqmFSoXIl-13" vertex="1" connectable="0">
          <mxGeometry x="-0.2189" y="-11" relative="1" as="geometry">
            <mxPoint x="-11" y="-6" as="offset" />
          </mxGeometry>
        </mxCell>
        <mxCell id="dzRaXjKXjlgb23_gsx2O-108" value="ClientSocket" style="swimlane;fontStyle=1;align=center;verticalAlign=top;childLayout=stackLayout;horizontal=1;startSize=30;horizontalStack=0;resizeParent=1;resizeParentMax=0;resizeLast=0;collapsible=1;marginBottom=0;fillColor=#d5e8d4;strokeColor=#82b366;fontSize=18;" parent="1" vertex="1">
          <mxGeometry x="-1800" y="-510" width="470" height="558" as="geometry" />
        </mxCell>
        <mxCell id="dzRaXjKXjlgb23_gsx2O-109" value="- Socket clientSoc" style="text;strokeColor=none;fillColor=none;align=left;verticalAlign=top;spacingLeft=4;spacingRight=4;overflow=hidden;rotatable=0;points=[[0,0.5],[1,0.5]];portConstraint=eastwest;fontSize=13;" parent="dzRaXjKXjlgb23_gsx2O-108" vertex="1">
          <mxGeometry y="30" width="470" height="26" as="geometry" />
        </mxCell>
        <mxCell id="dzRaXjKXjlgb23_gsx2O-110" value="- ObjectIntupStream: in&#xa;" style="text;strokeColor=none;fillColor=none;align=left;verticalAlign=top;spacingLeft=4;spacingRight=4;overflow=hidden;rotatable=0;points=[[0,0.5],[1,0.5]];portConstraint=eastwest;fontSize=13;" parent="dzRaXjKXjlgb23_gsx2O-108" vertex="1">
          <mxGeometry y="56" width="470" height="26" as="geometry" />
        </mxCell>
        <mxCell id="dzRaXjKXjlgb23_gsx2O-111" value="- ObjectOutputStream: out&#xa;" style="text;strokeColor=none;fillColor=none;align=left;verticalAlign=top;spacingLeft=4;spacingRight=4;overflow=hidden;rotatable=0;points=[[0,0.5],[1,0.5]];portConstraint=eastwest;fontSize=13;" parent="dzRaXjKXjlgb23_gsx2O-108" vertex="1">
          <mxGeometry y="82" width="470" height="26" as="geometry" />
        </mxCell>
        <mxCell id="dzRaXjKXjlgb23_gsx2O-112" value="- GameListenerHandlerClient modelInvokedEvents" style="text;strokeColor=none;fillColor=none;align=left;verticalAlign=top;spacingLeft=4;spacingRight=4;overflow=hidden;rotatable=0;points=[[0,0.5],[1,0.5]];portConstraint=eastwest;fontSize=13;" parent="dzRaXjKXjlgb23_gsx2O-108" vertex="1">
          <mxGeometry y="108" width="470" height="26" as="geometry" />
        </mxCell>
        <mxCell id="dzRaXjKXjlgb23_gsx2O-114" value="- String: nickname" style="text;strokeColor=none;fillColor=none;align=left;verticalAlign=top;spacingLeft=4;spacingRight=4;overflow=hidden;rotatable=0;points=[[0,0.5],[1,0.5]];portConstraint=eastwest;fontSize=13;" parent="dzRaXjKXjlgb23_gsx2O-108" vertex="1">
          <mxGeometry y="134" width="470" height="26" as="geometry" />
        </mxCell>
        <mxCell id="dzRaXjKXjlgb23_gsx2O-115" value="" style="line;strokeWidth=1;fillColor=none;align=left;verticalAlign=middle;spacingTop=-1;spacingLeft=3;spacingRight=3;rotatable=0;labelPosition=right;points=[];portConstraint=eastwest;strokeColor=inherit;" parent="dzRaXjKXjlgb23_gsx2O-108" vertex="1">
          <mxGeometry y="160" width="470" height="8" as="geometry" />
        </mxCell>
        <mxCell id="dzRaXjKXjlgb23_gsx2O-116" value="+ ClientSocket(Flow gui)" style="text;strokeColor=none;fillColor=none;align=left;verticalAlign=top;spacingLeft=4;spacingRight=4;overflow=hidden;rotatable=0;points=[[0,0.5],[1,0.5]];portConstraint=eastwest;fontSize=13;" parent="dzRaXjKXjlgb23_gsx2O-108" vertex="1">
          <mxGeometry y="168" width="470" height="26" as="geometry" />
        </mxCell>
        <mxCell id="dzRaXjKXjlgb23_gsx2O-118" value="+ void run()&#xa;" style="text;strokeColor=none;fillColor=none;align=left;verticalAlign=top;spacingLeft=4;spacingRight=4;overflow=hidden;rotatable=0;points=[[0,0.5],[1,0.5]];portConstraint=eastwest;fontSize=13;" parent="dzRaXjKXjlgb23_gsx2O-108" vertex="1">
          <mxGeometry y="194" width="470" height="26" as="geometry" />
        </mxCell>
        <mxCell id="dzRaXjKXjlgb23_gsx2O-117" value="+ void startConnection(String ip, int port)" style="text;strokeColor=none;fillColor=none;align=left;verticalAlign=top;spacingLeft=4;spacingRight=4;overflow=hidden;rotatable=0;points=[[0,0.5],[1,0.5]];portConstraint=eastwest;fontSize=13;" parent="dzRaXjKXjlgb23_gsx2O-108" vertex="1">
          <mxGeometry y="220" width="470" height="26" as="geometry" />
        </mxCell>
        <mxCell id="dzRaXjKXjlgb23_gsx2O-119" value="+ void stopConnection()" style="text;strokeColor=none;fillColor=none;align=left;verticalAlign=top;spacingLeft=4;spacingRight=4;overflow=hidden;rotatable=0;points=[[0,0.5],[1,0.5]];portConstraint=eastwest;fontSize=13;" parent="dzRaXjKXjlgb23_gsx2O-108" vertex="1">
          <mxGeometry y="246" width="470" height="26" as="geometry" />
        </mxCell>
        <mxCell id="dzRaXjKXjlgb23_gsx2O-120" value="+ void createGame(String nick)" style="text;strokeColor=none;fillColor=none;align=left;verticalAlign=top;spacingLeft=4;spacingRight=4;overflow=hidden;rotatable=0;points=[[0,0.5],[1,0.5]];portConstraint=eastwest;fontSize=13;" parent="dzRaXjKXjlgb23_gsx2O-108" vertex="1">
          <mxGeometry y="272" width="470" height="26" as="geometry" />
        </mxCell>
        <mxCell id="dzRaXjKXjlgb23_gsx2O-121" value="+ void joinFirstAvailable(String nick)Â " style="text;strokeColor=none;fillColor=none;align=left;verticalAlign=top;spacingLeft=4;spacingRight=4;overflow=hidden;rotatable=0;points=[[0,0.5],[1,0.5]];portConstraint=eastwest;fontSize=13;" parent="dzRaXjKXjlgb23_gsx2O-108" vertex="1">
          <mxGeometry y="298" width="470" height="26" as="geometry" />
        </mxCell>
        <mxCell id="dzRaXjKXjlgb23_gsx2O-122" value="+ void joinGame(String nick, int idGame)Â " style="text;strokeColor=none;fillColor=none;align=left;verticalAlign=top;spacingLeft=4;spacingRight=4;overflow=hidden;rotatable=0;points=[[0,0.5],[1,0.5]];portConstraint=eastwest;fontSize=13;" parent="dzRaXjKXjlgb23_gsx2O-108" vertex="1">
          <mxGeometry y="324" width="470" height="26" as="geometry" />
        </mxCell>
        <mxCell id="dzRaXjKXjlgb23_gsx2O-123" value="+ void reconnect(String nick, int idGame)Â " style="text;strokeColor=none;fillColor=none;align=left;verticalAlign=top;spacingLeft=4;spacingRight=4;overflow=hidden;rotatable=0;points=[[0,0.5],[1,0.5]];portConstraint=eastwest;fontSize=13;" parent="dzRaXjKXjlgb23_gsx2O-108" vertex="1">
          <mxGeometry y="350" width="470" height="26" as="geometry" />
        </mxCell>
        <mxCell id="dzRaXjKXjlgb23_gsx2O-125" value="+ void leave(String nick, int idGame)Â " style="text;strokeColor=none;fillColor=none;align=left;verticalAlign=top;spacingLeft=4;spacingRight=4;overflow=hidden;rotatable=0;points=[[0,0.5],[1,0.5]];portConstraint=eastwest;fontSize=13;" parent="dzRaXjKXjlgb23_gsx2O-108" vertex="1">
          <mxGeometry y="376" width="470" height="26" as="geometry" />
        </mxCell>
        <mxCell id="dzRaXjKXjlgb23_gsx2O-124" value="+ void setAsReady()" style="text;strokeColor=none;fillColor=none;align=left;verticalAlign=top;spacingLeft=4;spacingRight=4;overflow=hidden;rotatable=0;points=[[0,0.5],[1,0.5]];portConstraint=eastwest;fontSize=13;" parent="dzRaXjKXjlgb23_gsx2O-108" vertex="1">
          <mxGeometry y="402" width="470" height="26" as="geometry" />
        </mxCell>
        <mxCell id="dzRaXjKXjlgb23_gsx2O-126" value="+ boolean isMyTurn()" style="text;strokeColor=none;fillColor=none;align=left;verticalAlign=top;spacingLeft=4;spacingRight=4;overflow=hidden;rotatable=0;points=[[0,0.5],[1,0.5]];portConstraint=eastwest;fontSize=13;" parent="dzRaXjKXjlgb23_gsx2O-108" vertex="1">
          <mxGeometry y="428" width="470" height="26" as="geometry" />
        </mxCell>
        <mxCell id="dzRaXjKXjlgb23_gsx2O-127" value="+ void grabTileFromPlayground(int x, int y, Direction direction, int num)Â " style="text;strokeColor=none;fillColor=none;align=left;verticalAlign=top;spacingLeft=4;spacingRight=4;overflow=hidden;rotatable=0;points=[[0,0.5],[1,0.5]];portConstraint=eastwest;fontSize=13;" parent="dzRaXjKXjlgb23_gsx2O-108" vertex="1">
          <mxGeometry y="454" width="470" height="26" as="geometry" />
        </mxCell>
        <mxCell id="dzRaXjKXjlgb23_gsx2O-130" value="+ void positionTileOnShelf(int column, TileType type)" style="text;strokeColor=none;fillColor=none;align=left;verticalAlign=top;spacingLeft=4;spacingRight=4;overflow=hidden;rotatable=0;points=[[0,0.5],[1,0.5]];portConstraint=eastwest;fontSize=13;" parent="dzRaXjKXjlgb23_gsx2O-108" vertex="1">
          <mxGeometry y="480" width="470" height="26" as="geometry" />
        </mxCell>
        <mxCell id="dzRaXjKXjlgb23_gsx2O-129" value="+ void sendMessage(Message msg)Â " style="text;strokeColor=none;fillColor=none;align=left;verticalAlign=top;spacingLeft=4;spacingRight=4;overflow=hidden;rotatable=0;points=[[0,0.5],[1,0.5]];portConstraint=eastwest;fontSize=13;" parent="dzRaXjKXjlgb23_gsx2O-108" vertex="1">
          <mxGeometry y="506" width="470" height="26" as="geometry" />
        </mxCell>
        <mxCell id="dzRaXjKXjlgb23_gsx2O-128" value="+ void heartbeat()" style="text;strokeColor=none;fillColor=none;align=left;verticalAlign=top;spacingLeft=4;spacingRight=4;overflow=hidden;rotatable=0;points=[[0,0.5],[1,0.5]];portConstraint=eastwest;fontSize=13;" parent="dzRaXjKXjlgb23_gsx2O-108" vertex="1">
          <mxGeometry y="532" width="470" height="26" as="geometry" />
        </mxCell>
        <mxCell id="dzRaXjKXjlgb23_gsx2O-131" value="&lt;&lt;interface&gt;&gt;&#xa;GameListener&#xa;extends Remote" style="swimlane;fontStyle=1;align=center;verticalAlign=top;childLayout=stackLayout;horizontal=1;startSize=80;horizontalStack=0;resizeParent=1;resizeParentMax=0;resizeLast=0;collapsible=1;marginBottom=0;fillColor=#dae8fc;strokeColor=#6c8ebf;fontSize=18;" parent="1" vertex="1">
          <mxGeometry x="-1780" y="-1320" width="640" height="626" as="geometry" />
        </mxCell>
        <mxCell id="dzRaXjKXjlgb23_gsx2O-133" value="+ void playerJoined(GameModelImmutable gamemodel)Â " style="text;strokeColor=none;fillColor=none;align=left;verticalAlign=top;spacingLeft=4;spacingRight=4;overflow=hidden;rotatable=0;points=[[0,0.5],[1,0.5]];portConstraint=eastwest;fontSize=13;" parent="dzRaXjKXjlgb23_gsx2O-131" vertex="1">
          <mxGeometry y="80" width="640" height="26" as="geometry" />
        </mxCell>
        <mxCell id="dzRaXjKXjlgb23_gsx2O-134" value="+ void playerLeft(GameModelImmutable gamemodel, String nick)Â " style="text;strokeColor=none;fillColor=none;align=left;verticalAlign=top;spacingLeft=4;spacingRight=4;overflow=hidden;rotatable=0;points=[[0,0.5],[1,0.5]];portConstraint=eastwest;fontSize=13;" parent="dzRaXjKXjlgb23_gsx2O-131" vertex="1">
          <mxGeometry y="106" width="640" height="26" as="geometry" />
        </mxCell>
        <mxCell id="dzRaXjKXjlgb23_gsx2O-135" value="+ void joinUnableGameFull(Player p, GameModelImmutable gamemodel)Â " style="text;strokeColor=none;fillColor=none;align=left;verticalAlign=top;spacingLeft=4;spacingRight=4;overflow=hidden;rotatable=0;points=[[0,0.5],[1,0.5]];portConstraint=eastwest;fontSize=13;" parent="dzRaXjKXjlgb23_gsx2O-131" vertex="1">
          <mxGeometry y="132" width="640" height="26" as="geometry" />
        </mxCell>
        <mxCell id="dzRaXjKXjlgb23_gsx2O-138" value="+ void playerReconnected(GameModelImmutable gamemodel, String nickPlayerReconnected)Â " style="text;strokeColor=none;fillColor=none;align=left;verticalAlign=top;spacingLeft=4;spacingRight=4;overflow=hidden;rotatable=0;points=[[0,0.5],[1,0.5]];portConstraint=eastwest;fontSize=13;" parent="dzRaXjKXjlgb23_gsx2O-131" vertex="1">
          <mxGeometry y="158" width="640" height="26" as="geometry" />
        </mxCell>
        <mxCell id="dzRaXjKXjlgb23_gsx2O-139" value="+ void joinUnableNicknameAlreadyIn(Player wantedToJoin)Â " style="text;strokeColor=none;fillColor=none;align=left;verticalAlign=top;spacingLeft=4;spacingRight=4;overflow=hidden;rotatable=0;points=[[0,0.5],[1,0.5]];portConstraint=eastwest;fontSize=13;" parent="dzRaXjKXjlgb23_gsx2O-131" vertex="1">
          <mxGeometry y="184" width="640" height="26" as="geometry" />
        </mxCell>
        <mxCell id="dzRaXjKXjlgb23_gsx2O-140" value="+ void gameIdNotExists(int gameid)Â " style="text;strokeColor=none;fillColor=none;align=left;verticalAlign=top;spacingLeft=4;spacingRight=4;overflow=hidden;rotatable=0;points=[[0,0.5],[1,0.5]];portConstraint=eastwest;fontSize=13;" parent="dzRaXjKXjlgb23_gsx2O-131" vertex="1">
          <mxGeometry y="210" width="640" height="26" as="geometry" />
        </mxCell>
        <mxCell id="dzRaXjKXjlgb23_gsx2O-141" value="+ void genericErrorWhenEnteringGame(String why)" style="text;strokeColor=none;fillColor=none;align=left;verticalAlign=top;spacingLeft=4;spacingRight=4;overflow=hidden;rotatable=0;points=[[0,0.5],[1,0.5]];portConstraint=eastwest;fontSize=13;" parent="dzRaXjKXjlgb23_gsx2O-131" vertex="1">
          <mxGeometry y="236" width="640" height="26" as="geometry" />
        </mxCell>
        <mxCell id="dzRaXjKXjlgb23_gsx2O-142" value="+ void playerIsReadyToStart(GameModelImmutable gamemodel, String nick)Â " style="text;strokeColor=none;fillColor=none;align=left;verticalAlign=top;spacingLeft=4;spacingRight=4;overflow=hidden;rotatable=0;points=[[0,0.5],[1,0.5]];portConstraint=eastwest;fontSize=13;" parent="dzRaXjKXjlgb23_gsx2O-131" vertex="1">
          <mxGeometry y="262" width="640" height="26" as="geometry" />
        </mxCell>
        <mxCell id="dzRaXjKXjlgb23_gsx2O-143" value="+ void commonCardsExtracted(GameModelImmutable gamemodel)" style="text;strokeColor=none;fillColor=none;align=left;verticalAlign=top;spacingLeft=4;spacingRight=4;overflow=hidden;rotatable=0;points=[[0,0.5],[1,0.5]];portConstraint=eastwest;fontSize=13;" parent="dzRaXjKXjlgb23_gsx2O-131" vertex="1">
          <mxGeometry y="288" width="640" height="26" as="geometry" />
        </mxCell>
        <mxCell id="dzRaXjKXjlgb23_gsx2O-144" value="+ void gameStarted(GameModelImmutable gamemodel)Â " style="text;strokeColor=none;fillColor=none;align=left;verticalAlign=top;spacingLeft=4;spacingRight=4;overflow=hidden;rotatable=0;points=[[0,0.5],[1,0.5]];portConstraint=eastwest;fontSize=13;" parent="dzRaXjKXjlgb23_gsx2O-131" vertex="1">
          <mxGeometry y="314" width="640" height="26" as="geometry" />
        </mxCell>
        <mxCell id="dzRaXjKXjlgb23_gsx2O-145" value="+ void gameEnded(GameModelImmutable gamemodel)" style="text;strokeColor=none;fillColor=none;align=left;verticalAlign=top;spacingLeft=4;spacingRight=4;overflow=hidden;rotatable=0;points=[[0,0.5],[1,0.5]];portConstraint=eastwest;fontSize=13;" parent="dzRaXjKXjlgb23_gsx2O-131" vertex="1">
          <mxGeometry y="340" width="640" height="26" as="geometry" />
        </mxCell>
        <mxCell id="dzRaXjKXjlgb23_gsx2O-146" value="+ void sentMessage(GameModelImmutable gameModel, Message msg)" style="text;strokeColor=none;fillColor=none;align=left;verticalAlign=top;spacingLeft=4;spacingRight=4;overflow=hidden;rotatable=0;points=[[0,0.5],[1,0.5]];portConstraint=eastwest;fontSize=13;" parent="dzRaXjKXjlgb23_gsx2O-131" vertex="1">
          <mxGeometry y="366" width="640" height="26" as="geometry" />
        </mxCell>
        <mxCell id="dzRaXjKXjlgb23_gsx2O-147" value="+ void grabbedTile(GameModelImmutable gamemodel)" style="text;strokeColor=none;fillColor=none;align=left;verticalAlign=top;spacingLeft=4;spacingRight=4;overflow=hidden;rotatable=0;points=[[0,0.5],[1,0.5]];portConstraint=eastwest;fontSize=13;" parent="dzRaXjKXjlgb23_gsx2O-131" vertex="1">
          <mxGeometry y="392" width="640" height="26" as="geometry" />
        </mxCell>
        <mxCell id="dzRaXjKXjlgb23_gsx2O-148" value="+ void grabbedTileNotCorrect(GameModelImmutable gamemodel)" style="text;strokeColor=none;fillColor=none;align=left;verticalAlign=top;spacingLeft=4;spacingRight=4;overflow=hidden;rotatable=0;points=[[0,0.5],[1,0.5]];portConstraint=eastwest;fontSize=13;" parent="dzRaXjKXjlgb23_gsx2O-131" vertex="1">
          <mxGeometry y="418" width="640" height="26" as="geometry" />
        </mxCell>
        <mxCell id="dzRaXjKXjlgb23_gsx2O-149" value="+ void positionedTile(GameModelImmutable gamemodel, TileType type, int column)" style="text;strokeColor=none;fillColor=none;align=left;verticalAlign=top;spacingLeft=4;spacingRight=4;overflow=hidden;rotatable=0;points=[[0,0.5],[1,0.5]];portConstraint=eastwest;fontSize=13;" parent="dzRaXjKXjlgb23_gsx2O-131" vertex="1">
          <mxGeometry y="444" width="640" height="26" as="geometry" />
        </mxCell>
        <mxCell id="dzRaXjKXjlgb23_gsx2O-150" value="+ void nextTurn(GameModelImmutable gamemodel)" style="text;strokeColor=none;fillColor=none;align=left;verticalAlign=top;spacingLeft=4;spacingRight=4;overflow=hidden;rotatable=0;points=[[0,0.5],[1,0.5]];portConstraint=eastwest;fontSize=13;" parent="dzRaXjKXjlgb23_gsx2O-131" vertex="1">
          <mxGeometry y="470" width="640" height="26" as="geometry" />
        </mxCell>
        <mxCell id="dzRaXjKXjlgb23_gsx2O-151" value="+ void addedPoint(Player p, Point point, GameModelImmutable gamemodel)" style="text;strokeColor=none;fillColor=none;align=left;verticalAlign=top;spacingLeft=4;spacingRight=4;overflow=hidden;rotatable=0;points=[[0,0.5],[1,0.5]];portConstraint=eastwest;fontSize=13;" parent="dzRaXjKXjlgb23_gsx2O-131" vertex="1">
          <mxGeometry y="496" width="640" height="26" as="geometry" />
        </mxCell>
        <mxCell id="dzRaXjKXjlgb23_gsx2O-152" value="+ void playerDisconnected(GameModelImmutable gameModel, String nick)Â " style="text;strokeColor=none;fillColor=none;align=left;verticalAlign=top;spacingLeft=4;spacingRight=4;overflow=hidden;rotatable=0;points=[[0,0.5],[1,0.5]];portConstraint=eastwest;fontSize=13;" parent="dzRaXjKXjlgb23_gsx2O-131" vertex="1">
          <mxGeometry y="522" width="640" height="26" as="geometry" />
        </mxCell>
        <mxCell id="dzRaXjKXjlgb23_gsx2O-155" value="+ void columnShelfTooSmall(GameModelImmutable gameModel, int column)" style="text;strokeColor=none;fillColor=none;align=left;verticalAlign=top;spacingLeft=4;spacingRight=4;overflow=hidden;rotatable=0;points=[[0,0.5],[1,0.5]];portConstraint=eastwest;fontSize=13;" parent="dzRaXjKXjlgb23_gsx2O-131" vertex="1">
          <mxGeometry y="548" width="640" height="26" as="geometry" />
        </mxCell>
        <mxCell id="dzRaXjKXjlgb23_gsx2O-154" value="+ void onlyOnePlayerConnected(GameModelImmutable gameModel, int secondsToWaitUntilGameEnded)" style="text;strokeColor=none;fillColor=none;align=left;verticalAlign=top;spacingLeft=4;spacingRight=4;overflow=hidden;rotatable=0;points=[[0,0.5],[1,0.5]];portConstraint=eastwest;fontSize=13;" parent="dzRaXjKXjlgb23_gsx2O-131" vertex="1">
          <mxGeometry y="574" width="640" height="26" as="geometry" />
        </mxCell>
        <mxCell id="dzRaXjKXjlgb23_gsx2O-153" value="+ void lastCircle(GameModelImmutable gamemodel)" style="text;strokeColor=none;fillColor=none;align=left;verticalAlign=top;spacingLeft=4;spacingRight=4;overflow=hidden;rotatable=0;points=[[0,0.5],[1,0.5]];portConstraint=eastwest;fontSize=13;" parent="dzRaXjKXjlgb23_gsx2O-131" vertex="1">
          <mxGeometry y="600" width="640" height="26" as="geometry" />
        </mxCell>
        <mxCell id="dzRaXjKXjlgb23_gsx2O-156" style="edgeStyle=orthogonalEdgeStyle;rounded=0;orthogonalLoop=1;jettySize=auto;html=1;fontSize=18;startArrow=none;startFill=0;endArrow=block;endFill=0;entryX=0.49;entryY=1.106;entryDx=0;entryDy=0;entryPerimeter=0;" parent="1" source="dzRaXjKXjlgb23_gsx2O-112" target="dzRaXjKXjlgb23_gsx2O-189" edge="1">
          <mxGeometry relative="1" as="geometry">
            <Array as="points">
              <mxPoint x="-2460" y="-389" />
              <mxPoint x="-2460" y="-605" />
            </Array>
          </mxGeometry>
        </mxCell>
        <mxCell id="dzRaXjKXjlgb23_gsx2O-157" value="modelInvokedEvents" style="edgeLabel;html=1;align=center;verticalAlign=middle;resizable=0;points=[];fontSize=18;" parent="dzRaXjKXjlgb23_gsx2O-156" vertex="1" connectable="0">
          <mxGeometry x="-0.8208" y="-2" relative="1" as="geometry">
            <mxPoint x="-61" y="-1" as="offset" />
          </mxGeometry>
        </mxCell>
        <mxCell id="dzRaXjKXjlgb23_gsx2O-158" value="&lt;font style=&quot;font-size: 17px;&quot;&gt;Su cui eseguire tutti i messaggi ricevuti dal ClientHandler tramite la rete&lt;br&gt;(DInamicamente e&#39; un GameListenersHandlerClient&lt;/font&gt;" style="shape=note2;boundedLbl=1;whiteSpace=wrap;html=1;size=25;verticalAlign=top;align=center;fillColor=#fff2cc;strokeColor=#d6b656;" parent="1" vertex="1">
          <mxGeometry x="-2230" y="-560" width="370" height="140" as="geometry" />
        </mxCell>
        <mxCell id="dzRaXjKXjlgb23_gsx2O-161" style="edgeStyle=orthogonalEdgeStyle;rounded=0;orthogonalLoop=1;jettySize=auto;html=1;entryX=0.893;entryY=-0.02;entryDx=0;entryDy=0;entryPerimeter=0;dashed=1;fontSize=18;startArrow=none;startFill=0;endArrow=block;endFill=0;" parent="1" source="dzRaXjKXjlgb23_gsx2O-1" target="dzRaXjKXjlgb23_gsx2O-9" edge="1">
          <mxGeometry relative="1" as="geometry">
            <Array as="points">
              <mxPoint x="-900" y="-850" />
              <mxPoint x="-412" y="-850" />
            </Array>
          </mxGeometry>
        </mxCell>
        <mxCell id="dzRaXjKXjlgb23_gsx2O-162" value="crea per ogni connessione ricevuta" style="edgeLabel;html=1;align=center;verticalAlign=middle;resizable=0;points=[];fontSize=20;" parent="dzRaXjKXjlgb23_gsx2O-161" vertex="1" connectable="0">
          <mxGeometry x="-0.2252" y="-4" relative="1" as="geometry">
            <mxPoint as="offset" />
          </mxGeometry>
        </mxCell>
        <mxCell id="dzRaXjKXjlgb23_gsx2O-196" style="edgeStyle=orthogonalEdgeStyle;shape=flexArrow;rounded=0;orthogonalLoop=1;jettySize=auto;html=1;entryX=0;entryY=0.5;entryDx=0;entryDy=0;strokeColor=default;strokeWidth=1;fontSize=18;startArrow=none;startFill=0;endArrow=classic;endFill=0;targetPerimeterSpacing=11;" parent="1" source="dzRaXjKXjlgb23_gsx2O-165" target="dzRaXjKXjlgb23_gsx2O-144" edge="1">
          <mxGeometry relative="1" as="geometry" />
        </mxCell>
        <mxCell id="dzRaXjKXjlgb23_gsx2O-221" value="implements" style="edgeLabel;html=1;align=center;verticalAlign=middle;resizable=0;points=[];fontSize=20;" parent="dzRaXjKXjlgb23_gsx2O-196" vertex="1" connectable="0">
          <mxGeometry x="-0.1844" y="-1" relative="1" as="geometry">
            <mxPoint as="offset" />
          </mxGeometry>
        </mxCell>
        <mxCell id="dzRaXjKXjlgb23_gsx2O-165" value="GameListenersHandlerClient" style="swimlane;fontStyle=1;align=center;verticalAlign=top;childLayout=stackLayout;horizontal=1;startSize=30;horizontalStack=0;resizeParent=1;resizeParentMax=0;resizeLast=0;collapsible=1;marginBottom=0;fontSize=18;fillColor=#ffcccc;strokeColor=#36393d;" parent="1" vertex="1">
          <mxGeometry x="-2650" y="-750" width="390" height="142" as="geometry" />
        </mxCell>
        <mxCell id="dzRaXjKXjlgb23_gsx2O-166" value="- ObjectOutputStream out" style="text;strokeColor=none;fillColor=none;align=left;verticalAlign=top;spacingLeft=4;spacingRight=4;overflow=hidden;rotatable=0;points=[[0,0.5],[1,0.5]];portConstraint=eastwest;fontSize=13;" parent="dzRaXjKXjlgb23_gsx2O-165" vertex="1">
          <mxGeometry y="30" width="390" height="26" as="geometry" />
        </mxCell>
        <mxCell id="dzRaXjKXjlgb23_gsx2O-167" value="" style="line;strokeWidth=1;fillColor=none;align=left;verticalAlign=middle;spacingTop=-1;spacingLeft=3;spacingRight=3;rotatable=0;labelPosition=right;points=[];portConstraint=eastwest;strokeColor=inherit;" parent="dzRaXjKXjlgb23_gsx2O-165" vertex="1">
          <mxGeometry y="56" width="390" height="8" as="geometry" />
        </mxCell>
        <mxCell id="dzRaXjKXjlgb23_gsx2O-187" value="+ void playerJoined(GameModelImmutable gamemodel)Â " style="text;strokeColor=none;fillColor=none;align=left;verticalAlign=top;spacingLeft=4;spacingRight=4;overflow=hidden;rotatable=0;points=[[0,0.5],[1,0.5]];portConstraint=eastwest;fontSize=13;" parent="dzRaXjKXjlgb23_gsx2O-165" vertex="1">
          <mxGeometry y="64" width="390" height="26" as="geometry" />
        </mxCell>
        <mxCell id="dzRaXjKXjlgb23_gsx2O-188" value="+ void playerLeft(GameModelImmutable gamemodel, String nick)Â " style="text;strokeColor=none;fillColor=none;align=left;verticalAlign=top;spacingLeft=4;spacingRight=4;overflow=hidden;rotatable=0;points=[[0,0.5],[1,0.5]];portConstraint=eastwest;fontSize=13;" parent="dzRaXjKXjlgb23_gsx2O-165" vertex="1">
          <mxGeometry y="90" width="390" height="26" as="geometry" />
        </mxCell>
        <mxCell id="dzRaXjKXjlgb23_gsx2O-189" value="... altri metodi implementati di GameListener" style="text;strokeColor=none;fillColor=none;align=center;verticalAlign=top;spacingLeft=4;spacingRight=4;overflow=hidden;rotatable=0;points=[[0,0.5],[1,0.5]];portConstraint=eastwest;fontSize=13;fontStyle=3" parent="dzRaXjKXjlgb23_gsx2O-165" vertex="1">
          <mxGeometry y="116" width="390" height="26" as="geometry" />
        </mxCell>
        <mxCell id="dzRaXjKXjlgb23_gsx2O-200" style="edgeStyle=orthogonalEdgeStyle;rounded=0;orthogonalLoop=1;jettySize=auto;html=1;entryX=0.25;entryY=0;entryDx=0;entryDy=0;strokeColor=#d6b656;strokeWidth=1;fontSize=18;startArrow=none;startFill=0;endArrow=none;endFill=0;targetPerimeterSpacing=11;fillColor=#fff2cc;" parent="1" source="dzRaXjKXjlgb23_gsx2O-197" target="dzRaXjKXjlgb23_gsx2O-165" edge="1">
          <mxGeometry relative="1" as="geometry">
            <Array as="points">
              <mxPoint x="-2180" y="-770" />
              <mxPoint x="-2320" y="-770" />
              <mxPoint x="-2320" y="-750" />
            </Array>
          </mxGeometry>
        </mxCell>
        <mxCell id="dzRaXjKXjlgb23_gsx2O-197" value="&lt;font style=&quot;font-size: 17px;&quot;&gt;Funge da tramite ed inoltra la richiesta del meoto invocando lo stesso metodo sul flow (flow implementa GameListener)&lt;/font&gt;" style="shape=note2;boundedLbl=1;whiteSpace=wrap;html=1;size=25;verticalAlign=top;align=center;fillColor=#fff2cc;strokeColor=#d6b656;" parent="1" vertex="1">
          <mxGeometry x="-2340" y="-898" width="400" height="110" as="geometry" />
        </mxCell>
        <mxCell id="dzRaXjKXjlgb23_gsx2O-201" value="&lt;&lt;abstract&gt;&gt;&#xa;SocketServerGenericMessage&#xa;implements Serializable" style="swimlane;fontStyle=1;align=center;verticalAlign=top;childLayout=stackLayout;horizontal=1;startSize=80;horizontalStack=0;resizeParent=1;resizeParentMax=0;resizeLast=0;collapsible=1;marginBottom=0;fontSize=18;fillColor=#e1d5e7;strokeColor=#9673a6;" parent="1" vertex="1">
          <mxGeometry x="710" y="-967" width="450" height="120" as="geometry" />
        </mxCell>
        <mxCell id="dzRaXjKXjlgb23_gsx2O-202" value="+ abstract void execute(GameListener lis)" style="text;strokeColor=none;fillColor=none;align=left;verticalAlign=top;spacingLeft=4;spacingRight=4;overflow=hidden;rotatable=0;points=[[0,0.5],[1,0.5]];portConstraint=eastwest;fontSize=13;" parent="dzRaXjKXjlgb23_gsx2O-201" vertex="1">
          <mxGeometry y="80" width="450" height="40" as="geometry" />
        </mxCell>
        <mxCell id="pdc4RF1cK7iSSo5h04IV-7" style="edgeStyle=orthogonalEdgeStyle;shape=flexArrow;rounded=0;orthogonalLoop=1;jettySize=auto;html=1;strokeColor=#FF0000;" parent="1" source="dzRaXjKXjlgb23_gsx2O-209" target="dzRaXjKXjlgb23_gsx2O-201" edge="1">
          <mxGeometry relative="1" as="geometry">
            <Array as="points">
              <mxPoint x="690" y="-550" />
              <mxPoint x="1130" y="-550" />
              <mxPoint x="1130" y="-800" />
              <mxPoint x="915" y="-800" />
            </Array>
          </mxGeometry>
        </mxCell>
        <mxCell id="dzRaXjKXjlgb23_gsx2O-209" value="msgPlayerJoined" style="swimlane;fontStyle=1;align=center;verticalAlign=top;childLayout=stackLayout;horizontal=1;startSize=30;horizontalStack=0;resizeParent=1;resizeParentMax=0;resizeLast=0;collapsible=1;marginBottom=0;fontSize=18;" parent="1" vertex="1">
          <mxGeometry x="460" y="-472" width="460" height="116" as="geometry" />
        </mxCell>
        <mxCell id="dzRaXjKXjlgb23_gsx2O-216" value="- GameModelImmutable gamemodel" style="text;strokeColor=none;fillColor=none;align=left;verticalAlign=top;spacingLeft=4;spacingRight=4;overflow=hidden;rotatable=0;points=[[0,0.5],[1,0.5]];portConstraint=eastwest;fontSize=13;" parent="dzRaXjKXjlgb23_gsx2O-209" vertex="1">
          <mxGeometry y="30" width="460" height="26" as="geometry" />
        </mxCell>
        <mxCell id="dzRaXjKXjlgb23_gsx2O-211" value="" style="line;strokeWidth=1;fillColor=none;align=left;verticalAlign=middle;spacingTop=-1;spacingLeft=3;spacingRight=3;rotatable=0;labelPosition=right;points=[];portConstraint=eastwest;strokeColor=inherit;" parent="dzRaXjKXjlgb23_gsx2O-209" vertex="1">
          <mxGeometry y="56" width="460" height="8" as="geometry" />
        </mxCell>
        <mxCell id="dzRaXjKXjlgb23_gsx2O-212" value="+ msgPlayerJoined(Player p, Point point, GameModelImmutable gamemodel)Â " style="text;strokeColor=none;fillColor=none;align=left;verticalAlign=top;spacingLeft=4;spacingRight=4;overflow=hidden;rotatable=0;points=[[0,0.5],[1,0.5]];portConstraint=eastwest;fontSize=13;" parent="dzRaXjKXjlgb23_gsx2O-209" vertex="1">
          <mxGeometry y="64" width="460" height="26" as="geometry" />
        </mxCell>
        <mxCell id="dzRaXjKXjlgb23_gsx2O-213" value="+ void execute(GameListener lis) throws RemoteExceptionÂ " style="text;strokeColor=none;fillColor=none;align=left;verticalAlign=top;spacingLeft=4;spacingRight=4;overflow=hidden;rotatable=0;points=[[0,0.5],[1,0.5]];portConstraint=eastwest;fontSize=13;" parent="dzRaXjKXjlgb23_gsx2O-209" vertex="1">
          <mxGeometry y="90" width="460" height="26" as="geometry" />
        </mxCell>
        <mxCell id="pdc4RF1cK7iSSo5h04IV-8" style="edgeStyle=orthogonalEdgeStyle;shape=flexArrow;rounded=0;orthogonalLoop=1;jettySize=auto;html=1;strokeColor=#FF0000;" parent="1" source="pdc4RF1cK7iSSo5h04IV-1" target="dzRaXjKXjlgb23_gsx2O-201" edge="1">
          <mxGeometry relative="1" as="geometry">
            <Array as="points">
              <mxPoint x="1130" y="-800" />
              <mxPoint x="915" y="-800" />
            </Array>
          </mxGeometry>
        </mxCell>
        <mxCell id="pdc4RF1cK7iSSo5h04IV-10" value="extends" style="edgeLabel;html=1;align=center;verticalAlign=middle;resizable=0;points=[];fontSize=20;" parent="pdc4RF1cK7iSSo5h04IV-8" vertex="1" connectable="0">
          <mxGeometry x="-0.4868" y="2" relative="1" as="geometry">
            <mxPoint y="56" as="offset" />
          </mxGeometry>
        </mxCell>
        <mxCell id="pdc4RF1cK7iSSo5h04IV-1" value="msgPositionedTile" style="swimlane;fontStyle=1;align=center;verticalAlign=top;childLayout=stackLayout;horizontal=1;startSize=30;horizontalStack=0;resizeParent=1;resizeParentMax=0;resizeLast=0;collapsible=1;marginBottom=0;fontSize=18;" parent="1" vertex="1">
          <mxGeometry x="1120" y="-498" width="510" height="168" as="geometry" />
        </mxCell>
        <mxCell id="pdc4RF1cK7iSSo5h04IV-2" value="- GameModelImmutable gamemodel" style="text;strokeColor=none;fillColor=none;align=left;verticalAlign=top;spacingLeft=4;spacingRight=4;overflow=hidden;rotatable=0;points=[[0,0.5],[1,0.5]];portConstraint=eastwest;fontSize=13;" parent="pdc4RF1cK7iSSo5h04IV-1" vertex="1">
          <mxGeometry y="30" width="510" height="26" as="geometry" />
        </mxCell>
        <mxCell id="pdc4RF1cK7iSSo5h04IV-11" value="- TileType type" style="text;strokeColor=none;fillColor=none;align=left;verticalAlign=top;spacingLeft=4;spacingRight=4;overflow=hidden;rotatable=0;points=[[0,0.5],[1,0.5]];portConstraint=eastwest;fontSize=13;" parent="pdc4RF1cK7iSSo5h04IV-1" vertex="1">
          <mxGeometry y="56" width="510" height="26" as="geometry" />
        </mxCell>
        <mxCell id="pdc4RF1cK7iSSo5h04IV-12" value="- int column" style="text;strokeColor=none;fillColor=none;align=left;verticalAlign=top;spacingLeft=4;spacingRight=4;overflow=hidden;rotatable=0;points=[[0,0.5],[1,0.5]];portConstraint=eastwest;fontSize=13;" parent="pdc4RF1cK7iSSo5h04IV-1" vertex="1">
          <mxGeometry y="82" width="510" height="26" as="geometry" />
        </mxCell>
        <mxCell id="pdc4RF1cK7iSSo5h04IV-3" value="" style="line;strokeWidth=1;fillColor=none;align=left;verticalAlign=middle;spacingTop=-1;spacingLeft=3;spacingRight=3;rotatable=0;labelPosition=right;points=[];portConstraint=eastwest;strokeColor=inherit;" parent="pdc4RF1cK7iSSo5h04IV-1" vertex="1">
          <mxGeometry y="108" width="510" height="8" as="geometry" />
        </mxCell>
        <mxCell id="pdc4RF1cK7iSSo5h04IV-4" value="+ msgPositionedTile(GameModelImmutable gamemodel, TileType type, int column)Â " style="text;strokeColor=none;fillColor=none;align=left;verticalAlign=top;spacingLeft=4;spacingRight=4;overflow=hidden;rotatable=0;points=[[0,0.5],[1,0.5]];portConstraint=eastwest;fontSize=13;" parent="pdc4RF1cK7iSSo5h04IV-1" vertex="1">
          <mxGeometry y="116" width="510" height="26" as="geometry" />
        </mxCell>
        <mxCell id="pdc4RF1cK7iSSo5h04IV-5" value="+ void execute(GameListener lis) throws RemoteExceptionÂ " style="text;strokeColor=none;fillColor=none;align=left;verticalAlign=top;spacingLeft=4;spacingRight=4;overflow=hidden;rotatable=0;points=[[0,0.5],[1,0.5]];portConstraint=eastwest;fontSize=13;" parent="pdc4RF1cK7iSSo5h04IV-1" vertex="1">
          <mxGeometry y="142" width="510" height="26" as="geometry" />
        </mxCell>
        <mxCell id="pdc4RF1cK7iSSo5h04IV-13" value="&lt;font size=&quot;1&quot; style=&quot;&quot;&gt;&lt;b style=&quot;font-size: 30px;&quot;&gt;. . .&lt;/b&gt;&lt;/font&gt;" style="text;html=1;strokeColor=none;fillColor=none;align=center;verticalAlign=middle;whiteSpace=wrap;rounded=0;strokeWidth=5;" parent="1" vertex="1">
          <mxGeometry x="980" y="-455" width="90" height="30" as="geometry" />
        </mxCell>
        <mxCell id="pdc4RF1cK7iSSo5h04IV-45" style="edgeStyle=orthogonalEdgeStyle;shape=flexArrow;rounded=0;orthogonalLoop=1;jettySize=auto;html=1;strokeColor=#FF0000;fontSize=30;" parent="1" source="pdc4RF1cK7iSSo5h04IV-16" target="pdc4RF1cK7iSSo5h04IV-35" edge="1">
          <mxGeometry relative="1" as="geometry">
            <Array as="points">
              <mxPoint x="880" y="-110" />
              <mxPoint x="1720" y="-110" />
              <mxPoint x="1720" y="-670" />
              <mxPoint x="1680" y="-670" />
            </Array>
          </mxGeometry>
        </mxCell>
        <mxCell id="pdc4RF1cK7iSSo5h04IV-16" value="SocketClientMessageGrabTileFromPlayground" style="swimlane;fontStyle=1;align=center;verticalAlign=top;childLayout=stackLayout;horizontal=1;startSize=30;horizontalStack=0;resizeParent=1;resizeParentMax=0;resizeLast=0;collapsible=1;marginBottom=0;fontSize=18;" parent="1" vertex="1">
          <mxGeometry x="520" y="-30" width="720" height="220" as="geometry" />
        </mxCell>
        <mxCell id="pdc4RF1cK7iSSo5h04IV-17" value="- x: int" style="text;strokeColor=none;fillColor=none;align=left;verticalAlign=top;spacingLeft=4;spacingRight=4;overflow=hidden;rotatable=0;points=[[0,0.5],[1,0.5]];portConstraint=eastwest;fontSize=13;" parent="pdc4RF1cK7iSSo5h04IV-16" vertex="1">
          <mxGeometry y="30" width="720" height="26" as="geometry" />
        </mxCell>
        <mxCell id="pdc4RF1cK7iSSo5h04IV-21" value="- y: int" style="text;strokeColor=none;fillColor=none;align=left;verticalAlign=top;spacingLeft=4;spacingRight=4;overflow=hidden;rotatable=0;points=[[0,0.5],[1,0.5]];portConstraint=eastwest;fontSize=13;" parent="pdc4RF1cK7iSSo5h04IV-16" vertex="1">
          <mxGeometry y="56" width="720" height="26" as="geometry" />
        </mxCell>
        <mxCell id="pdc4RF1cK7iSSo5h04IV-22" value="- num: int" style="text;strokeColor=none;fillColor=none;align=left;verticalAlign=top;spacingLeft=4;spacingRight=4;overflow=hidden;rotatable=0;points=[[0,0.5],[1,0.5]];portConstraint=eastwest;fontSize=13;" parent="pdc4RF1cK7iSSo5h04IV-16" vertex="1">
          <mxGeometry y="82" width="720" height="26" as="geometry" />
        </mxCell>
        <mxCell id="pdc4RF1cK7iSSo5h04IV-23" value="- direction: Direction" style="text;strokeColor=none;fillColor=none;align=left;verticalAlign=top;spacingLeft=4;spacingRight=4;overflow=hidden;rotatable=0;points=[[0,0.5],[1,0.5]];portConstraint=eastwest;fontSize=13;" parent="pdc4RF1cK7iSSo5h04IV-16" vertex="1">
          <mxGeometry y="108" width="720" height="26" as="geometry" />
        </mxCell>
        <mxCell id="pdc4RF1cK7iSSo5h04IV-18" value="" style="line;strokeWidth=1;fillColor=none;align=left;verticalAlign=middle;spacingTop=-1;spacingLeft=3;spacingRight=3;rotatable=0;labelPosition=right;points=[];portConstraint=eastwest;strokeColor=inherit;" parent="pdc4RF1cK7iSSo5h04IV-16" vertex="1">
          <mxGeometry y="134" width="720" height="8" as="geometry" />
        </mxCell>
        <mxCell id="pdc4RF1cK7iSSo5h04IV-19" value="+Â SocketClientMessageGrabTileFromPlayground(String nick, int x, int y, Direction direction, int num)Â " style="text;strokeColor=none;fillColor=none;align=left;verticalAlign=top;spacingLeft=4;spacingRight=4;overflow=hidden;rotatable=0;points=[[0,0.5],[1,0.5]];portConstraint=eastwest;fontSize=13;" parent="pdc4RF1cK7iSSo5h04IV-16" vertex="1">
          <mxGeometry y="142" width="720" height="26" as="geometry" />
        </mxCell>
        <mxCell id="pdc4RF1cK7iSSo5h04IV-20" value="+ execute(GameListener lis, MainControllerInterface mainController) throws RemoteException: GameControllerInterfaceÂ " style="text;strokeColor=none;fillColor=none;align=left;verticalAlign=top;spacingLeft=4;spacingRight=4;overflow=hidden;rotatable=0;points=[[0,0.5],[1,0.5]];portConstraint=eastwest;fontSize=13;" parent="pdc4RF1cK7iSSo5h04IV-16" vertex="1">
          <mxGeometry y="168" width="720" height="26" as="geometry" />
        </mxCell>
        <mxCell id="pdc4RF1cK7iSSo5h04IV-24" value="+ execute(GameControllerInterface gameController) throws RemoteException: voidÂ " style="text;strokeColor=none;fillColor=none;align=left;verticalAlign=top;spacingLeft=4;spacingRight=4;overflow=hidden;rotatable=0;points=[[0,0.5],[1,0.5]];portConstraint=eastwest;fontSize=13;" parent="pdc4RF1cK7iSSo5h04IV-16" vertex="1">
          <mxGeometry y="194" width="720" height="26" as="geometry" />
        </mxCell>
        <mxCell id="pdc4RF1cK7iSSo5h04IV-44" style="edgeStyle=orthogonalEdgeStyle;shape=flexArrow;rounded=0;orthogonalLoop=1;jettySize=auto;html=1;strokeColor=#FF0000;fontSize=30;" parent="1" source="pdc4RF1cK7iSSo5h04IV-25" target="pdc4RF1cK7iSSo5h04IV-35" edge="1">
          <mxGeometry relative="1" as="geometry">
            <Array as="points">
              <mxPoint x="40" y="-110" />
              <mxPoint x="1720" y="-110" />
              <mxPoint x="1720" y="-670" />
              <mxPoint x="1680" y="-670" />
            </Array>
          </mxGeometry>
        </mxCell>
        <mxCell id="pdc4RF1cK7iSSo5h04IV-46" value="extends" style="edgeLabel;html=1;align=center;verticalAlign=middle;resizable=0;points=[];fontSize=20;" parent="pdc4RF1cK7iSSo5h04IV-44" vertex="1" connectable="0">
          <mxGeometry x="0.2743" y="5" relative="1" as="geometry">
            <mxPoint as="offset" />
          </mxGeometry>
        </mxCell>
        <mxCell id="pdc4RF1cK7iSSo5h04IV-25" value="SocketClientMessageSetReady" style="swimlane;fontStyle=1;align=center;verticalAlign=top;childLayout=stackLayout;horizontal=1;startSize=30;horizontalStack=0;resizeParent=1;resizeParentMax=0;resizeLast=0;collapsible=1;marginBottom=0;fontSize=18;" parent="1" vertex="1">
          <mxGeometry x="-320" y="-30" width="720" height="108" as="geometry" />
        </mxCell>
        <mxCell id="pdc4RF1cK7iSSo5h04IV-31" value="+Â SocketClientMessageSetReady(String nick)" style="text;strokeColor=none;fillColor=none;align=left;verticalAlign=top;spacingLeft=4;spacingRight=4;overflow=hidden;rotatable=0;points=[[0,0.5],[1,0.5]];portConstraint=eastwest;fontSize=13;" parent="pdc4RF1cK7iSSo5h04IV-25" vertex="1">
          <mxGeometry y="30" width="720" height="26" as="geometry" />
        </mxCell>
        <mxCell id="pdc4RF1cK7iSSo5h04IV-32" value="+ execute(GameListener lis, MainControllerInterface mainController) throws RemoteException: GameControllerInterface" style="text;strokeColor=none;fillColor=none;align=left;verticalAlign=top;spacingLeft=4;spacingRight=4;overflow=hidden;rotatable=0;points=[[0,0.5],[1,0.5]];portConstraint=eastwest;fontSize=13;" parent="pdc4RF1cK7iSSo5h04IV-25" vertex="1">
          <mxGeometry y="56" width="720" height="26" as="geometry" />
        </mxCell>
        <mxCell id="pdc4RF1cK7iSSo5h04IV-33" value="+ execute(GameControllerInterface gameController) throws RemoteException: void" style="text;strokeColor=none;fillColor=none;align=left;verticalAlign=top;spacingLeft=4;spacingRight=4;overflow=hidden;rotatable=0;points=[[0,0.5],[1,0.5]];portConstraint=eastwest;fontSize=13;" parent="pdc4RF1cK7iSSo5h04IV-25" vertex="1">
          <mxGeometry y="82" width="720" height="26" as="geometry" />
        </mxCell>
        <mxCell id="pdc4RF1cK7iSSo5h04IV-34" value="&lt;font size=&quot;1&quot; style=&quot;&quot;&gt;&lt;b style=&quot;font-size: 30px;&quot;&gt;. . .&lt;/b&gt;&lt;/font&gt;" style="text;html=1;strokeColor=none;fillColor=none;align=center;verticalAlign=middle;whiteSpace=wrap;rounded=0;strokeWidth=5;" parent="1" vertex="1">
          <mxGeometry x="420" y="20" width="90" height="30" as="geometry" />
        </mxCell>
        <mxCell id="pdc4RF1cK7iSSo5h04IV-35" value="&lt;&lt;abstract&gt;&gt;&#xa;SocketClientGenericMessage&#xa;implements Serializable" style="swimlane;fontStyle=1;align=center;verticalAlign=top;childLayout=stackLayout;horizontal=1;startSize=80;horizontalStack=0;resizeParent=1;resizeParentMax=0;resizeLast=0;collapsible=1;marginBottom=0;fontSize=18;fillColor=#e1d5e7;strokeColor=#9673a6;" parent="1" vertex="1">
          <mxGeometry x="1250" y="-1090" width="760" height="366" as="geometry" />
        </mxCell>
        <mxCell id="pdc4RF1cK7iSSo5h04IV-37" value="- nick: String" style="text;strokeColor=none;fillColor=none;align=left;verticalAlign=top;spacingLeft=4;spacingRight=4;overflow=hidden;rotatable=0;points=[[0,0.5],[1,0.5]];portConstraint=eastwest;fontSize=13;" parent="pdc4RF1cK7iSSo5h04IV-35" vertex="1">
          <mxGeometry y="80" width="760" height="40" as="geometry" />
        </mxCell>
        <mxCell id="pdc4RF1cK7iSSo5h04IV-39" value="- isMessageForMainController: boolean" style="text;strokeColor=none;fillColor=none;align=left;verticalAlign=top;spacingLeft=4;spacingRight=4;overflow=hidden;rotatable=0;points=[[0,0.5],[1,0.5]];portConstraint=eastwest;fontSize=13;" parent="pdc4RF1cK7iSSo5h04IV-35" vertex="1">
          <mxGeometry y="120" width="760" height="40" as="geometry" />
        </mxCell>
        <mxCell id="pdc4RF1cK7iSSo5h04IV-38" value="" style="line;strokeWidth=1;fillColor=none;align=left;verticalAlign=middle;spacingTop=-1;spacingLeft=3;spacingRight=3;rotatable=0;labelPosition=right;points=[];portConstraint=eastwest;strokeColor=inherit;" parent="pdc4RF1cK7iSSo5h04IV-35" vertex="1">
          <mxGeometry y="160" width="760" height="8" as="geometry" />
        </mxCell>
        <mxCell id="pdc4RF1cK7iSSo5h04IV-36" value="+Â abstract GameControllerInterface execute(GameListener lis, MainControllerInterface mainController) throws RemoteException&#xa;" style="text;strokeColor=none;fillColor=none;align=left;verticalAlign=top;spacingLeft=4;spacingRight=4;overflow=hidden;rotatable=0;points=[[0,0.5],[1,0.5]];portConstraint=eastwest;fontSize=13;" parent="pdc4RF1cK7iSSo5h04IV-35" vertex="1">
          <mxGeometry y="168" width="760" height="40" as="geometry" />
        </mxCell>
        <mxCell id="pdc4RF1cK7iSSo5h04IV-40" value="+ abstract void execute(GameControllerInterface gameController) throws RemoteException, GameEndedException" style="text;strokeColor=none;fillColor=none;align=left;verticalAlign=top;spacingLeft=4;spacingRight=4;overflow=hidden;rotatable=0;points=[[0,0.5],[1,0.5]];portConstraint=eastwest;fontSize=13;" parent="pdc4RF1cK7iSSo5h04IV-35" vertex="1">
          <mxGeometry y="208" width="760" height="40" as="geometry" />
        </mxCell>
        <mxCell id="pdc4RF1cK7iSSo5h04IV-41" value="+ isMessageForMainController(): boolean" style="text;strokeColor=none;fillColor=none;align=left;verticalAlign=top;spacingLeft=4;spacingRight=4;overflow=hidden;rotatable=0;points=[[0,0.5],[1,0.5]];portConstraint=eastwest;fontSize=13;" parent="pdc4RF1cK7iSSo5h04IV-35" vertex="1">
          <mxGeometry y="248" width="760" height="40" as="geometry" />
        </mxCell>
        <mxCell id="pdc4RF1cK7iSSo5h04IV-42" value="+ setMessageForMainController(boolean messageForMainController): void" style="text;strokeColor=none;fillColor=none;align=left;verticalAlign=top;spacingLeft=4;spacingRight=4;overflow=hidden;rotatable=0;points=[[0,0.5],[1,0.5]];portConstraint=eastwest;fontSize=13;" parent="pdc4RF1cK7iSSo5h04IV-35" vertex="1">
          <mxGeometry y="288" width="760" height="40" as="geometry" />
        </mxCell>
        <mxCell id="pdc4RF1cK7iSSo5h04IV-43" value="+ getNick(): String" style="text;strokeColor=none;fillColor=none;align=left;verticalAlign=top;spacingLeft=4;spacingRight=4;overflow=hidden;rotatable=0;points=[[0,0.5],[1,0.5]];portConstraint=eastwest;fontSize=13;" parent="pdc4RF1cK7iSSo5h04IV-35" vertex="1">
          <mxGeometry y="328" width="760" height="38" as="geometry" />
        </mxCell>
        <mxCell id="pdc4RF1cK7iSSo5h04IV-59" style="edgeStyle=orthogonalEdgeStyle;rounded=0;orthogonalLoop=1;jettySize=auto;html=1;strokeColor=#FF0000;fontSize=20;shape=flexArrow;" parent="1" source="pdc4RF1cK7iSSo5h04IV-50" target="pdc4RF1cK7iSSo5h04IV-35" edge="1">
          <mxGeometry relative="1" as="geometry">
            <Array as="points">
              <mxPoint x="-820" y="380" />
              <mxPoint x="580" y="380" />
              <mxPoint x="580" y="330" />
              <mxPoint x="1810" y="330" />
              <mxPoint x="1810" y="-670" />
              <mxPoint x="1680" y="-670" />
            </Array>
          </mxGeometry>
        </mxCell>
        <mxCell id="pdc4RF1cK7iSSo5h04IV-50" value="SocketClientMessagesCreateGame" style="swimlane;fontStyle=1;align=center;verticalAlign=top;childLayout=stackLayout;horizontal=1;startSize=30;horizontalStack=0;resizeParent=1;resizeParentMax=0;resizeLast=0;collapsible=1;marginBottom=0;fontSize=18;" parent="1" vertex="1">
          <mxGeometry x="-1180" y="420" width="720" height="108" as="geometry" />
        </mxCell>
        <mxCell id="pdc4RF1cK7iSSo5h04IV-51" value="+Â SocketClientMessageCreateGame(String nick)" style="text;strokeColor=none;fillColor=none;align=left;verticalAlign=top;spacingLeft=4;spacingRight=4;overflow=hidden;rotatable=0;points=[[0,0.5],[1,0.5]];portConstraint=eastwest;fontSize=13;" parent="pdc4RF1cK7iSSo5h04IV-50" vertex="1">
          <mxGeometry y="30" width="720" height="26" as="geometry" />
        </mxCell>
        <mxCell id="pdc4RF1cK7iSSo5h04IV-52" value="+ execute(GameListener lis, MainControllerInterface mainController) throws RemoteException: GameControllerInterface" style="text;strokeColor=none;fillColor=none;align=left;verticalAlign=top;spacingLeft=4;spacingRight=4;overflow=hidden;rotatable=0;points=[[0,0.5],[1,0.5]];portConstraint=eastwest;fontSize=13;" parent="pdc4RF1cK7iSSo5h04IV-50" vertex="1">
          <mxGeometry y="56" width="720" height="26" as="geometry" />
        </mxCell>
        <mxCell id="pdc4RF1cK7iSSo5h04IV-53" value="+ execute(GameControllerInterface gameController) throws RemoteException: void" style="text;strokeColor=none;fillColor=none;align=left;verticalAlign=top;spacingLeft=4;spacingRight=4;overflow=hidden;rotatable=0;points=[[0,0.5],[1,0.5]];portConstraint=eastwest;fontSize=13;" parent="pdc4RF1cK7iSSo5h04IV-50" vertex="1">
          <mxGeometry y="82" width="720" height="26" as="geometry" />
        </mxCell>
        <mxCell id="pdc4RF1cK7iSSo5h04IV-60" style="edgeStyle=orthogonalEdgeStyle;shape=flexArrow;rounded=0;orthogonalLoop=1;jettySize=auto;html=1;strokeColor=#FF0000;fontSize=20;" parent="1" source="pdc4RF1cK7iSSo5h04IV-54" target="pdc4RF1cK7iSSo5h04IV-35" edge="1">
          <mxGeometry relative="1" as="geometry">
            <Array as="points">
              <mxPoint x="20" y="380" />
              <mxPoint x="580" y="380" />
              <mxPoint x="580" y="330" />
              <mxPoint x="1810" y="330" />
              <mxPoint x="1810" y="-670" />
              <mxPoint x="1680" y="-670" />
            </Array>
          </mxGeometry>
        </mxCell>
        <mxCell id="pdc4RF1cK7iSSo5h04IV-61" value="extends" style="edgeLabel;html=1;align=center;verticalAlign=middle;resizable=0;points=[];fontSize=20;" parent="pdc4RF1cK7iSSo5h04IV-60" vertex="1" connectable="0">
          <mxGeometry x="-0.278" y="-5" relative="1" as="geometry">
            <mxPoint x="774" y="-391" as="offset" />
          </mxGeometry>
        </mxCell>
        <mxCell id="pdc4RF1cK7iSSo5h04IV-54" value="SocketClientMessagesJoinFirst" style="swimlane;fontStyle=1;align=center;verticalAlign=top;childLayout=stackLayout;horizontal=1;startSize=30;horizontalStack=0;resizeParent=1;resizeParentMax=0;resizeLast=0;collapsible=1;marginBottom=0;fontSize=18;" parent="1" vertex="1">
          <mxGeometry x="-340" y="420" width="720" height="108" as="geometry" />
        </mxCell>
        <mxCell id="pdc4RF1cK7iSSo5h04IV-55" value="+Â SocketClientMessageJoinFirst(String nick)" style="text;strokeColor=none;fillColor=none;align=left;verticalAlign=top;spacingLeft=4;spacingRight=4;overflow=hidden;rotatable=0;points=[[0,0.5],[1,0.5]];portConstraint=eastwest;fontSize=13;" parent="pdc4RF1cK7iSSo5h04IV-54" vertex="1">
          <mxGeometry y="30" width="720" height="26" as="geometry" />
        </mxCell>
        <mxCell id="pdc4RF1cK7iSSo5h04IV-56" value="+ execute(GameListener lis, MainControllerInterface mainController) throws RemoteException: GameControllerInterface" style="text;strokeColor=none;fillColor=none;align=left;verticalAlign=top;spacingLeft=4;spacingRight=4;overflow=hidden;rotatable=0;points=[[0,0.5],[1,0.5]];portConstraint=eastwest;fontSize=13;" parent="pdc4RF1cK7iSSo5h04IV-54" vertex="1">
          <mxGeometry y="56" width="720" height="26" as="geometry" />
        </mxCell>
        <mxCell id="pdc4RF1cK7iSSo5h04IV-57" value="+ execute(GameControllerInterface gameController) throws RemoteException: void" style="text;strokeColor=none;fillColor=none;align=left;verticalAlign=top;spacingLeft=4;spacingRight=4;overflow=hidden;rotatable=0;points=[[0,0.5],[1,0.5]];portConstraint=eastwest;fontSize=13;" parent="pdc4RF1cK7iSSo5h04IV-54" vertex="1">
          <mxGeometry y="82" width="720" height="26" as="geometry" />
        </mxCell>
        <mxCell id="pdc4RF1cK7iSSo5h04IV-58" value="&lt;font size=&quot;1&quot; style=&quot;&quot;&gt;&lt;b style=&quot;font-size: 30px;&quot;&gt;. . .&lt;/b&gt;&lt;/font&gt;" style="text;html=1;strokeColor=none;fillColor=none;align=center;verticalAlign=middle;whiteSpace=wrap;rounded=0;strokeWidth=5;" parent="1" vertex="1">
          <mxGeometry x="-440" y="459" width="90" height="30" as="geometry" />
        </mxCell>
        <mxCell id="pdc4RF1cK7iSSo5h04IV-66" value="&lt;font style=&quot;font-size: 17px;&quot;&gt;Messaggi riferiti al GameController&lt;br&gt;di conseguenza solo il 2 execute sarÃ¡ effettivamente implementato&lt;br&gt;(il 1 execute restituirÃ¡ null)&amp;nbsp;&lt;/font&gt;" style="shape=note2;boundedLbl=1;whiteSpace=wrap;html=1;size=25;verticalAlign=top;align=center;fillColor=#fff2cc;strokeColor=#d6b656;" parent="1" vertex="1">
          <mxGeometry x="-630" y="-160" width="260" height="150" as="geometry" />
        </mxCell>
        <mxCell id="pdc4RF1cK7iSSo5h04IV-67" value="&lt;font style=&quot;font-size: 17px;&quot;&gt;Messaggi riferiti al MainController&lt;br&gt;di conseguenza solo il 1 execute sarÃ¡ effettivamente implementato&lt;br&gt;(il 2 execute sarÃ¡ vuoto)&amp;nbsp;&lt;/font&gt;" style="shape=note2;boundedLbl=1;whiteSpace=wrap;html=1;size=25;verticalAlign=top;align=center;fillColor=#fff2cc;strokeColor=#d6b656;" parent="1" vertex="1">
          <mxGeometry x="-1530" y="280" width="280" height="150" as="geometry" />
        </mxCell>
        <mxCell id="QCJdGkt5ciZwqmFSoXIl-1" value="&lt;&lt;interface&gt;&gt;&#xa;CommonClientActions" style="swimlane;fontStyle=1;align=center;verticalAlign=top;childLayout=stackLayout;horizontal=1;startSize=60;horizontalStack=0;resizeParent=1;resizeParentMax=0;resizeLast=0;collapsible=1;marginBottom=0;fillColor=#dae8fc;strokeColor=#6c8ebf;fontSize=18;" parent="1" vertex="1">
          <mxGeometry x="-2540" y="-95.5" width="650" height="346" as="geometry" />
        </mxCell>
        <mxCell id="QCJdGkt5ciZwqmFSoXIl-2" value="+ createGame(String nick) throws IOException, InterruptedException, NotBoundException: void" style="text;strokeColor=none;fillColor=none;align=left;verticalAlign=top;spacingLeft=4;spacingRight=4;overflow=hidden;rotatable=0;points=[[0,0.5],[1,0.5]];portConstraint=eastwest;fontSize=13;" parent="QCJdGkt5ciZwqmFSoXIl-1" vertex="1">
          <mxGeometry y="60" width="650" height="26" as="geometry" />
        </mxCell>
        <mxCell id="QCJdGkt5ciZwqmFSoXIl-3" value="+ joinFirstAvailable(String nick) throws IOException, InterruptedException, NotBoundException: void" style="text;strokeColor=none;fillColor=none;align=left;verticalAlign=top;spacingLeft=4;spacingRight=4;overflow=hidden;rotatable=0;points=[[0,0.5],[1,0.5]];portConstraint=eastwest;fontSize=13;" parent="QCJdGkt5ciZwqmFSoXIl-1" vertex="1">
          <mxGeometry y="86" width="650" height="26" as="geometry" />
        </mxCell>
        <mxCell id="QCJdGkt5ciZwqmFSoXIl-4" value="+ joinGame(String nick, int idGame) throws IOException, InterruptedException, NotBoundException: void" style="text;strokeColor=none;fillColor=none;align=left;verticalAlign=top;spacingLeft=4;spacingRight=4;overflow=hidden;rotatable=0;points=[[0,0.5],[1,0.5]];portConstraint=eastwest;fontSize=13;" parent="QCJdGkt5ciZwqmFSoXIl-1" vertex="1">
          <mxGeometry y="112" width="650" height="26" as="geometry" />
        </mxCell>
        <mxCell id="QCJdGkt5ciZwqmFSoXIl-5" value="+ reconnect(String nick, int idGame) throws IOException, InterruptedException, NotBoundException: void&#xa;" style="text;strokeColor=none;fillColor=none;align=left;verticalAlign=top;spacingLeft=4;spacingRight=4;overflow=hidden;rotatable=0;points=[[0,0.5],[1,0.5]];portConstraint=eastwest;fontSize=13;" parent="QCJdGkt5ciZwqmFSoXIl-1" vertex="1">
          <mxGeometry y="138" width="650" height="26" as="geometry" />
        </mxCell>
        <mxCell id="QCJdGkt5ciZwqmFSoXIl-6" value="+ leave(String nick, int idGame) throws IOException, NotBoundException: void" style="text;strokeColor=none;fillColor=none;align=left;verticalAlign=top;spacingLeft=4;spacingRight=4;overflow=hidden;rotatable=0;points=[[0,0.5],[1,0.5]];portConstraint=eastwest;fontSize=13;" parent="QCJdGkt5ciZwqmFSoXIl-1" vertex="1">
          <mxGeometry y="164" width="650" height="26" as="geometry" />
        </mxCell>
        <mxCell id="QCJdGkt5ciZwqmFSoXIl-7" value="+ setAsReady() throws IOException: void" style="text;strokeColor=none;fillColor=none;align=left;verticalAlign=top;spacingLeft=4;spacingRight=4;overflow=hidden;rotatable=0;points=[[0,0.5],[1,0.5]];portConstraint=eastwest;fontSize=13;" parent="QCJdGkt5ciZwqmFSoXIl-1" vertex="1">
          <mxGeometry y="190" width="650" height="26" as="geometry" />
        </mxCell>
        <mxCell id="QCJdGkt5ciZwqmFSoXIl-8" value="+ isMyTurn() throws RemoteException: boolean" style="text;strokeColor=none;fillColor=none;align=left;verticalAlign=top;spacingLeft=4;spacingRight=4;overflow=hidden;rotatable=0;points=[[0,0.5],[1,0.5]];portConstraint=eastwest;fontSize=13;" parent="QCJdGkt5ciZwqmFSoXIl-1" vertex="1">
          <mxGeometry y="216" width="650" height="26" as="geometry" />
        </mxCell>
        <mxCell id="QCJdGkt5ciZwqmFSoXIl-9" value="+ grabTileFromPlayground(int x, int y, Direction direction, int num) throws IOException: void" style="text;strokeColor=none;fillColor=none;align=left;verticalAlign=top;spacingLeft=4;spacingRight=4;overflow=hidden;rotatable=0;points=[[0,0.5],[1,0.5]];portConstraint=eastwest;fontSize=13;" parent="QCJdGkt5ciZwqmFSoXIl-1" vertex="1">
          <mxGeometry y="242" width="650" height="26" as="geometry" />
        </mxCell>
        <mxCell id="QCJdGkt5ciZwqmFSoXIl-10" value="+ positionTileOnShelf(int column, TileType type) throws IOException, GameEndedException: void" style="text;strokeColor=none;fillColor=none;align=left;verticalAlign=top;spacingLeft=4;spacingRight=4;overflow=hidden;rotatable=0;points=[[0,0.5],[1,0.5]];portConstraint=eastwest;fontSize=13;" parent="QCJdGkt5ciZwqmFSoXIl-1" vertex="1">
          <mxGeometry y="268" width="650" height="26" as="geometry" />
        </mxCell>
        <mxCell id="QCJdGkt5ciZwqmFSoXIl-11" value="+ sendMessage(Message msg) throws RemoteException: void" style="text;strokeColor=none;fillColor=none;align=left;verticalAlign=top;spacingLeft=4;spacingRight=4;overflow=hidden;rotatable=0;points=[[0,0.5],[1,0.5]];portConstraint=eastwest;fontSize=13;" parent="QCJdGkt5ciZwqmFSoXIl-1" vertex="1">
          <mxGeometry y="294" width="650" height="26" as="geometry" />
        </mxCell>
        <mxCell id="QCJdGkt5ciZwqmFSoXIl-12" value="+ heartbeat() throws RemoteException: void" style="text;strokeColor=none;fillColor=none;align=left;verticalAlign=top;spacingLeft=4;spacingRight=4;overflow=hidden;rotatable=0;points=[[0,0.5],[1,0.5]];portConstraint=eastwest;fontSize=13;" parent="QCJdGkt5ciZwqmFSoXIl-1" vertex="1">
          <mxGeometry y="320" width="650" height="26" as="geometry" />
        </mxCell>
      </root>
    </mxGraphModel>
  </diagram>
</mxfile>
